<svg width="326" height="175" viewBox="0 0 326 175" fill="none" xmlns="http://www.w3.org/2000/svg">
<g clip-path="url(#clip0_589_9426)">
<g clip-path="url(#clip1_589_9426)">
<rect width="325.33" height="175" fill="#D5CBFF"/>
<g filter="url(#filter0_f_589_9426)">
<ellipse cx="245.167" cy="53.5" rx="122.5" ry="120.5" fill="#C0A8F0"/>
</g>
</g>
<g style="mix-blend-mode:plus-darker" filter="url(#filter1_f_589_9426)">
<ellipse cx="87.6665" cy="173.5" rx="136" ry="133.5" fill="#FFDAD6"/>
</g>
<g clip-path="url(#clip2_589_9426)">
<rect x="23.6665" y="23" width="199.994" height="24.8447" rx="12.4224" fill="#FAF8FC"/>
<path d="M42.9212 35.8882H39.6603V39.1491H38.7286V35.8882H35.4678V34.9565H38.7286V31.6957H39.6603V34.9565H42.9212V35.8882Z" fill="#2C5AB8"/>
<path d="M50.4179 32.7137H53.157C53.5976 32.7137 53.957 32.7774 54.2352 32.905C54.5135 33.0325 54.728 33.1919 54.8787 33.3832C55.0295 33.5745 55.1309 33.7832 55.1831 34.0093C55.241 34.2354 55.27 34.4441 55.27 34.6354C55.27 34.8267 55.241 35.0354 55.1831 35.2615C55.1309 35.4818 55.0295 35.6876 54.8787 35.8789C54.728 36.0702 54.5135 36.2296 54.2352 36.3571C53.957 36.4789 53.5976 36.5398 53.157 36.5398H51.5048V38.9224H50.4179V32.7137ZM51.5048 35.6528H53.0961C53.2179 35.6528 53.3425 35.6354 53.47 35.6006C53.5976 35.5658 53.7135 35.5108 53.8179 35.4354C53.928 35.3542 54.015 35.2499 54.0787 35.1224C54.1483 34.989 54.1831 34.8238 54.1831 34.6267C54.1831 34.4238 54.1541 34.2557 54.0961 34.1224C54.0381 33.989 53.9599 33.8847 53.8613 33.8093C53.7628 33.7282 53.6497 33.6731 53.5222 33.6441C53.3947 33.6151 53.2584 33.6006 53.1135 33.6006H51.5048V35.6528ZM56.0787 34.4267H57.0091V35.2963H57.0265C57.0555 35.1745 57.1105 35.0557 57.1917 34.9398C57.2787 34.8238 57.3801 34.7195 57.4961 34.6267C57.6178 34.5282 57.7511 34.4499 57.8961 34.3919C58.041 34.334 58.1888 34.305 58.3395 34.305C58.4555 34.305 58.5337 34.3079 58.5743 34.3137C58.6207 34.3195 58.6671 34.3253 58.7134 34.3311V35.2876C58.6439 35.276 58.5714 35.2673 58.4961 35.2615C58.4265 35.2499 58.3569 35.2441 58.2874 35.2441C58.1192 35.2441 57.9598 35.2789 57.8091 35.3485C57.6642 35.4122 57.5366 35.5108 57.4265 35.6441C57.3163 35.7716 57.2294 35.9311 57.1656 36.1224C57.1018 36.3137 57.07 36.534 57.07 36.7832V38.9224H56.0787V34.4267ZM61.0437 39.0441C60.6843 39.0441 60.3626 38.9861 60.0785 38.8702C59.8003 38.7485 59.5626 38.5832 59.3655 38.3745C59.1742 38.1658 59.0263 37.9166 58.922 37.6267C58.8235 37.3369 58.7742 37.018 58.7742 36.6702C58.7742 36.3282 58.8235 36.0122 58.922 35.7224C59.0263 35.4325 59.1742 35.1832 59.3655 34.9745C59.5626 34.7658 59.8003 34.6035 60.0785 34.4876C60.3626 34.3658 60.6843 34.305 61.0437 34.305C61.4032 34.305 61.722 34.3658 62.0003 34.4876C62.2843 34.6035 62.522 34.7658 62.7133 34.9745C62.9104 35.1832 63.0582 35.4325 63.1568 35.7224C63.2611 36.0122 63.3133 36.3282 63.3133 36.6702C63.3133 37.018 63.2611 37.3369 63.1568 37.6267C63.0582 37.9166 62.9104 38.1658 62.7133 38.3745C62.522 38.5832 62.2843 38.7485 62.0003 38.8702C61.722 38.9861 61.4032 39.0441 61.0437 39.0441ZM61.0437 38.2615C61.264 38.2615 61.4553 38.2151 61.6177 38.1224C61.78 38.0296 61.9133 37.9079 62.0177 37.7571C62.122 37.6064 62.1974 37.4383 62.2437 37.2528C62.2959 37.0615 62.322 36.8673 62.322 36.6702C62.322 36.4789 62.2959 36.2876 62.2437 36.0963C62.1974 35.905 62.122 35.7369 62.0177 35.5919C61.9133 35.4412 61.78 35.3195 61.6177 35.2267C61.4553 35.134 61.264 35.0876 61.0437 35.0876C60.8235 35.0876 60.6321 35.134 60.4698 35.2267C60.3075 35.3195 60.1742 35.4412 60.0698 35.5919C59.9655 35.7369 59.8872 35.905 59.835 36.0963C59.7887 36.2876 59.7655 36.4789 59.7655 36.6702C59.7655 36.8673 59.7887 37.0615 59.835 37.2528C59.8872 37.4383 59.9655 37.6064 60.0698 37.7571C60.1742 37.9079 60.3075 38.0296 60.4698 38.1224C60.6321 38.2151 60.8235 38.2615 61.0437 38.2615ZM66.1983 39.0441C65.8389 39.0441 65.5171 38.9861 65.2331 38.8702C64.9548 38.7485 64.7171 38.5832 64.52 38.3745C64.3287 38.1658 64.1809 37.9166 64.0766 37.6267C63.978 37.3369 63.9287 37.018 63.9287 36.6702C63.9287 36.3282 63.978 36.0122 64.0766 35.7224C64.1809 35.4325 64.3287 35.1832 64.52 34.9745C64.7171 34.7658 64.9548 34.6035 65.2331 34.4876C65.5171 34.3658 65.8389 34.305 66.1983 34.305C66.5577 34.305 66.8766 34.3658 67.1548 34.4876C67.4389 34.6035 67.6766 34.7658 67.8679 34.9745C68.065 35.1832 68.2128 35.4325 68.3113 35.7224C68.4157 36.0122 68.4679 36.3282 68.4679 36.6702C68.4679 37.018 68.4157 37.3369 68.3113 37.6267C68.2128 37.9166 68.065 38.1658 67.8679 38.3745C67.6766 38.5832 67.4389 38.7485 67.1548 38.8702C66.8766 38.9861 66.5577 39.0441 66.1983 39.0441ZM66.1983 38.2615C66.4186 38.2615 66.6099 38.2151 66.7722 38.1224C66.9345 38.0296 67.0679 37.9079 67.1722 37.7571C67.2766 37.6064 67.3519 37.4383 67.3983 37.2528C67.4505 37.0615 67.4766 36.8673 67.4766 36.6702C67.4766 36.4789 67.4505 36.2876 67.3983 36.0963C67.3519 35.905 67.2766 35.7369 67.1722 35.5919C67.0679 35.4412 66.9345 35.3195 66.7722 35.2267C66.6099 35.134 66.4186 35.0876 66.1983 35.0876C65.978 35.0876 65.7867 35.134 65.6244 35.2267C65.4621 35.3195 65.3287 35.4412 65.2244 35.5919C65.12 35.7369 65.0418 35.905 64.9896 36.0963C64.9432 36.2876 64.92 36.4789 64.92 36.6702C64.92 36.8673 64.9432 37.0615 64.9896 37.2528C65.0418 37.4383 65.12 37.6064 65.2244 37.7571C65.3287 37.9079 65.4621 38.0296 65.6244 38.1224C65.7867 38.2151 65.978 38.2615 66.1983 38.2615ZM68.8485 34.4267H69.5876V34.0528C69.5876 33.7687 69.6224 33.5398 69.692 33.3658C69.7615 33.1861 69.8543 33.0499 69.9702 32.9571C70.0862 32.8586 70.2166 32.7948 70.3615 32.7658C70.5123 32.7311 70.6688 32.7137 70.8311 32.7137C71.1499 32.7137 71.3818 32.734 71.5268 32.7745V33.5485C71.463 33.5311 71.3934 33.5195 71.3181 33.5137C71.2485 33.5021 71.1644 33.4963 71.0659 33.4963C70.9326 33.4963 70.8166 33.5282 70.7181 33.5919C70.6253 33.6557 70.5789 33.7803 70.5789 33.9658V34.4267H71.4224V35.1658H70.5789V38.9224H69.5876V35.1658H68.8485V34.4267ZM76.5159 39.0441C76.1565 39.0441 75.8347 38.9861 75.5507 38.8702C75.2724 38.7485 75.0347 38.5832 74.8376 38.3745C74.6463 38.1658 74.4985 37.9166 74.3941 37.6267C74.2956 37.3369 74.2463 37.018 74.2463 36.6702C74.2463 36.3282 74.2956 36.0122 74.3941 35.7224C74.4985 35.4325 74.6463 35.1832 74.8376 34.9745C75.0347 34.7658 75.2724 34.6035 75.5507 34.4876C75.8347 34.3658 76.1565 34.305 76.5159 34.305C76.8753 34.305 77.1941 34.3658 77.4724 34.4876C77.7565 34.6035 77.9941 34.7658 78.1855 34.9745C78.3826 35.1832 78.5304 35.4325 78.6289 35.7224C78.7333 36.0122 78.7855 36.3282 78.7855 36.6702C78.7855 37.018 78.7333 37.3369 78.6289 37.6267C78.5304 37.9166 78.3826 38.1658 78.1855 38.3745C77.9941 38.5832 77.7565 38.7485 77.4724 38.8702C77.1941 38.9861 76.8753 39.0441 76.5159 39.0441ZM76.5159 38.2615C76.7362 38.2615 76.9275 38.2151 77.0898 38.1224C77.2521 38.0296 77.3855 37.9079 77.4898 37.7571C77.5941 37.6064 77.6695 37.4383 77.7159 37.2528C77.7681 37.0615 77.7941 36.8673 77.7941 36.6702C77.7941 36.4789 77.7681 36.2876 77.7159 36.0963C77.6695 35.905 77.5941 35.7369 77.4898 35.5919C77.3855 35.4412 77.2521 35.3195 77.0898 35.2267C76.9275 35.134 76.7362 35.0876 76.5159 35.0876C76.2956 35.0876 76.1043 35.134 75.942 35.2267C75.7797 35.3195 75.6463 35.4412 75.542 35.5919C75.4376 35.7369 75.3594 35.905 75.3072 36.0963C75.2608 36.2876 75.2376 36.4789 75.2376 36.6702C75.2376 36.8673 75.2608 37.0615 75.3072 37.2528C75.3594 37.4383 75.4376 37.6064 75.542 37.7571C75.6463 37.9079 75.7797 38.0296 75.942 38.1224C76.1043 38.2151 76.2956 38.2615 76.5159 38.2615ZM79.1661 34.4267H79.9052V34.0528C79.9052 33.7687 79.94 33.5398 80.0096 33.3658C80.0791 33.1861 80.1719 33.0499 80.2878 32.9571C80.4038 32.8586 80.5342 32.7948 80.6791 32.7658C80.8299 32.7311 80.9864 32.7137 81.1487 32.7137C81.4675 32.7137 81.6994 32.734 81.8444 32.7745V33.5485C81.7806 33.5311 81.711 33.5195 81.6357 33.5137C81.5661 33.5021 81.482 33.4963 81.3835 33.4963C81.2501 33.4963 81.1342 33.5282 81.0357 33.5919C80.9429 33.6557 80.8965 33.7803 80.8965 33.9658V34.4267H81.74V35.1658H80.8965V38.9224H79.9052V35.1658H79.1661V34.4267ZM84.9117 32.7137H87.6509C88.0915 32.7137 88.4509 32.7774 88.7291 32.905C89.0074 33.0325 89.2219 33.1919 89.3726 33.3832C89.5233 33.5745 89.6248 33.7832 89.677 34.0093C89.7349 34.2354 89.7639 34.4441 89.7639 34.6354C89.7639 34.8267 89.7349 35.0354 89.677 35.2615C89.6248 35.4818 89.5233 35.6876 89.3726 35.8789C89.2219 36.0702 89.0074 36.2296 88.7291 36.3571C88.4509 36.4789 88.0915 36.5398 87.6509 36.5398H85.9987V38.9224H84.9117V32.7137ZM85.9987 35.6528H87.59C87.7117 35.6528 87.8364 35.6354 87.9639 35.6006C88.0915 35.5658 88.2074 35.5108 88.3117 35.4354C88.4219 35.3542 88.5088 35.2499 88.5726 35.1224C88.6422 34.989 88.677 34.8238 88.677 34.6267C88.677 34.4238 88.648 34.2557 88.59 34.1224C88.532 33.989 88.4538 33.8847 88.3552 33.8093C88.2567 33.7282 88.1436 33.6731 88.0161 33.6441C87.8886 33.6151 87.7523 33.6006 87.6074 33.6006H85.9987V35.6528ZM93.6595 36.2789C93.6479 36.1224 93.6131 35.9716 93.5552 35.8267C93.503 35.6818 93.4276 35.5571 93.3291 35.4528C93.2363 35.3427 93.1204 35.2557 92.9812 35.1919C92.8479 35.1224 92.6972 35.0876 92.5291 35.0876C92.3552 35.0876 92.1957 35.1195 92.0508 35.1832C91.9117 35.2412 91.7899 35.3253 91.6856 35.4354C91.587 35.5398 91.5059 35.6644 91.4421 35.8093C91.3841 35.9542 91.3523 36.1108 91.3465 36.2789H93.6595ZM91.3465 36.9311C91.3465 37.105 91.3696 37.2731 91.416 37.4354C91.4682 37.5977 91.5436 37.7398 91.6421 37.8615C91.7407 37.9832 91.8653 38.0818 92.016 38.1571C92.1667 38.2267 92.3465 38.2615 92.5552 38.2615C92.845 38.2615 93.0769 38.2006 93.2508 38.0789C93.4305 37.9513 93.5638 37.7629 93.6508 37.5137H94.5899C94.5378 37.7571 94.4479 37.9745 94.3204 38.1658C94.1928 38.3571 94.0392 38.5195 93.8595 38.6528C93.6798 38.7803 93.4769 38.876 93.2508 38.9398C93.0305 39.0093 92.7986 39.0441 92.5552 39.0441C92.2015 39.0441 91.8885 38.9861 91.616 38.8702C91.3436 38.7542 91.1117 38.5919 90.9204 38.3832C90.7349 38.1745 90.5928 37.9253 90.4943 37.6354C90.4015 37.3456 90.3552 37.0267 90.3552 36.6789C90.3552 36.36 90.4044 36.0586 90.503 35.7745C90.6073 35.4847 90.7523 35.2325 90.9378 35.018C91.1291 34.7977 91.3581 34.6238 91.6247 34.4963C91.8914 34.3687 92.1928 34.305 92.5291 34.305C92.8827 34.305 93.1986 34.3803 93.4769 34.5311C93.7609 34.676 93.9957 34.8702 94.1812 35.1137C94.3667 35.3571 94.5001 35.6383 94.5812 35.9571C94.6682 36.2702 94.6914 36.5948 94.6508 36.9311H91.3465ZM95.4044 34.4267H96.3348V35.2963H96.3522C96.3812 35.1745 96.4363 35.0557 96.5175 34.9398C96.6044 34.8238 96.7059 34.7195 96.8218 34.6267C96.9435 34.5282 97.0769 34.4499 97.2218 34.3919C97.3667 34.334 97.5146 34.305 97.6653 34.305C97.7812 34.305 97.8595 34.3079 97.9001 34.3137C97.9464 34.3195 97.9928 34.3253 98.0392 34.3311V35.2876C97.9696 35.276 97.8972 35.2673 97.8218 35.2615C97.7522 35.2499 97.6827 35.2441 97.6131 35.2441C97.445 35.2441 97.2856 35.2789 97.1348 35.3485C96.9899 35.4122 96.8624 35.5108 96.7522 35.6441C96.6421 35.7716 96.5551 35.9311 96.4914 36.1224C96.4276 36.3137 96.3957 36.534 96.3957 36.7832V38.9224H95.4044V34.4267ZM98.018 34.4267H98.7571V34.0528C98.7571 33.7687 98.7919 33.5398 98.8615 33.3658C98.931 33.1861 99.0238 33.0499 99.1397 32.9571C99.2557 32.8586 99.3861 32.7948 99.531 32.7658C99.6818 32.7311 99.8383 32.7137 100.001 32.7137C100.319 32.7137 100.551 32.734 100.696 32.7745V33.5485C100.632 33.5311 100.563 33.5195 100.488 33.5137C100.418 33.5021 100.334 33.4963 100.235 33.4963C100.102 33.4963 99.9861 33.5282 99.8876 33.5919C99.7948 33.6557 99.7484 33.7803 99.7484 33.9658V34.4267H100.592V35.1658H99.7484V38.9224H98.7571V35.1658H98.018V34.4267ZM103.265 39.0441C102.906 39.0441 102.584 38.9861 102.3 38.8702C102.022 38.7485 101.784 38.5832 101.587 38.3745C101.396 38.1658 101.248 37.9166 101.143 37.6267C101.045 37.3369 100.996 37.018 100.996 36.6702C100.996 36.3282 101.045 36.0122 101.143 35.7224C101.248 35.4325 101.396 35.1832 101.587 34.9745C101.784 34.7658 102.022 34.6035 102.3 34.4876C102.584 34.3658 102.906 34.305 103.265 34.305C103.625 34.305 103.943 34.3658 104.222 34.4876C104.506 34.6035 104.743 34.7658 104.935 34.9745C105.132 35.1832 105.28 35.4325 105.378 35.7224C105.483 36.0122 105.535 36.3282 105.535 36.6702C105.535 37.018 105.483 37.3369 105.378 37.6267C105.28 37.9166 105.132 38.1658 104.935 38.3745C104.743 38.5832 104.506 38.7485 104.222 38.8702C103.943 38.9861 103.625 39.0441 103.265 39.0441ZM103.265 38.2615C103.485 38.2615 103.677 38.2151 103.839 38.1224C104.001 38.0296 104.135 37.9079 104.239 37.7571C104.343 37.6064 104.419 37.4383 104.465 37.2528C104.517 37.0615 104.543 36.8673 104.543 36.6702C104.543 36.4789 104.517 36.2876 104.465 36.0963C104.419 35.905 104.343 35.7369 104.239 35.5919C104.135 35.4412 104.001 35.3195 103.839 35.2267C103.677 35.134 103.485 35.0876 103.265 35.0876C103.045 35.0876 102.854 35.134 102.691 35.2267C102.529 35.3195 102.396 35.4412 102.291 35.5919C102.187 35.7369 102.109 35.905 102.057 36.0963C102.01 36.2876 101.987 36.4789 101.987 36.6702C101.987 36.8673 102.01 37.0615 102.057 37.2528C102.109 37.4383 102.187 37.6064 102.291 37.7571C102.396 37.9079 102.529 38.0296 102.691 38.1224C102.854 38.2151 103.045 38.2615 103.265 38.2615ZM106.359 34.4267H107.289V35.2963H107.307C107.336 35.1745 107.391 35.0557 107.472 34.9398C107.559 34.8238 107.66 34.7195 107.776 34.6267C107.898 34.5282 108.031 34.4499 108.176 34.3919C108.321 34.334 108.469 34.305 108.62 34.305C108.736 34.305 108.814 34.3079 108.855 34.3137C108.901 34.3195 108.947 34.3253 108.994 34.3311V35.2876C108.924 35.276 108.852 35.2673 108.776 35.2615C108.707 35.2499 108.637 35.2441 108.568 35.2441C108.399 35.2441 108.24 35.2789 108.089 35.3485C107.944 35.4122 107.817 35.5108 107.707 35.6441C107.597 35.7716 107.51 35.9311 107.446 36.1224C107.382 36.3137 107.35 36.534 107.35 36.7832V38.9224H106.359V34.4267ZM109.416 34.4267H110.355V35.0528H110.381C110.457 34.9427 110.538 34.8412 110.625 34.7485C110.712 34.6557 110.807 34.5774 110.912 34.5137C111.022 34.4499 111.146 34.4006 111.286 34.3658C111.425 34.3253 111.584 34.305 111.764 34.305C112.036 34.305 112.288 34.3658 112.52 34.4876C112.758 34.6093 112.926 34.7977 113.025 35.0528C113.193 34.8209 113.387 34.6383 113.607 34.505C113.828 34.3716 114.103 34.305 114.433 34.305C114.909 34.305 115.277 34.4209 115.538 34.6528C115.804 34.8847 115.938 35.2731 115.938 35.818V38.9224H114.946V36.2963C114.946 36.1166 114.941 35.9542 114.929 35.8093C114.917 35.6586 114.883 35.5311 114.825 35.4267C114.772 35.3166 114.691 35.2325 114.581 35.1745C114.471 35.1166 114.32 35.0876 114.129 35.0876C113.793 35.0876 113.549 35.1919 113.399 35.4006C113.248 35.6093 113.172 35.905 113.172 36.2876V38.9224H112.181V36.0354C112.181 35.7224 112.123 35.4876 112.007 35.3311C111.897 35.1687 111.691 35.0876 111.39 35.0876C111.262 35.0876 111.138 35.1137 111.016 35.1658C110.9 35.218 110.796 35.2934 110.703 35.3919C110.616 35.4905 110.543 35.6122 110.486 35.7571C110.433 35.9021 110.407 36.0673 110.407 36.2528V38.9224H109.416V34.4267ZM120.747 37.9224C120.747 38.0441 120.762 38.1311 120.791 38.1832C120.826 38.2354 120.889 38.2615 120.982 38.2615C121.011 38.2615 121.046 38.2615 121.087 38.2615C121.127 38.2615 121.173 38.2557 121.226 38.2441V38.9311C121.191 38.9427 121.145 38.9542 121.087 38.9658C121.034 38.9832 120.979 38.9977 120.921 39.0093C120.863 39.0209 120.805 39.0296 120.747 39.0354C120.689 39.0412 120.64 39.0441 120.6 39.0441C120.397 39.0441 120.229 39.0035 120.095 38.9224C119.962 38.8412 119.875 38.6992 119.834 38.4963C119.637 38.6876 119.394 38.8267 119.104 38.9137C118.82 39.0006 118.545 39.0441 118.278 39.0441C118.075 39.0441 117.881 39.0151 117.695 38.9571C117.51 38.905 117.345 38.8267 117.2 38.7224C117.06 38.6122 116.947 38.476 116.86 38.3137C116.779 38.1456 116.739 37.9513 116.739 37.7311C116.739 37.4528 116.788 37.2267 116.887 37.0528C116.991 36.8789 117.124 36.7427 117.287 36.6441C117.455 36.5456 117.64 36.476 117.843 36.4354C118.052 36.389 118.26 36.3542 118.469 36.3311C118.649 36.2963 118.82 36.2731 118.982 36.2615C119.145 36.2441 119.287 36.218 119.408 36.1832C119.536 36.1485 119.634 36.0963 119.704 36.0267C119.779 35.9513 119.817 35.8412 119.817 35.6963C119.817 35.5687 119.785 35.4644 119.721 35.3832C119.663 35.3021 119.588 35.2412 119.495 35.2006C119.408 35.1542 119.31 35.1253 119.2 35.1137C119.089 35.0963 118.985 35.0876 118.887 35.0876C118.608 35.0876 118.379 35.1456 118.2 35.2615C118.02 35.3774 117.918 35.5571 117.895 35.8006H116.904C116.921 35.5108 116.991 35.2702 117.113 35.0789C117.234 34.8876 117.388 34.734 117.573 34.618C117.765 34.5021 117.979 34.4209 118.217 34.3745C118.455 34.3282 118.698 34.305 118.947 34.305C119.168 34.305 119.385 34.3282 119.6 34.3745C119.814 34.4209 120.005 34.4963 120.173 34.6006C120.347 34.705 120.487 34.8412 120.591 35.0093C120.695 35.1716 120.747 35.3716 120.747 35.6093V37.9224ZM119.756 36.6702C119.605 36.7687 119.42 36.8296 119.2 36.8528C118.979 36.8702 118.759 36.8992 118.539 36.9398C118.434 36.9571 118.333 36.9832 118.234 37.018C118.136 37.047 118.049 37.0905 117.973 37.1485C117.898 37.2006 117.837 37.2731 117.791 37.3658C117.75 37.4528 117.73 37.56 117.73 37.6876C117.73 37.7977 117.762 37.8905 117.826 37.9658C117.889 38.0412 117.965 38.1021 118.052 38.1485C118.145 38.189 118.243 38.218 118.347 38.2354C118.458 38.2528 118.556 38.2615 118.643 38.2615C118.753 38.2615 118.872 38.247 119 38.218C119.127 38.189 119.246 38.1398 119.356 38.0702C119.472 38.0006 119.568 37.9137 119.643 37.8093C119.718 37.6992 119.756 37.5658 119.756 37.4093V36.6702ZM121.814 34.4267H122.753V35.0876L122.771 35.105C122.921 34.8557 123.118 34.6615 123.362 34.5224C123.605 34.3774 123.875 34.305 124.171 34.305C124.663 34.305 125.052 34.4325 125.336 34.6876C125.62 34.9427 125.762 35.3253 125.762 35.8354V38.9224H124.771V36.0963C124.759 35.7427 124.684 35.4876 124.544 35.3311C124.405 35.1687 124.188 35.0876 123.892 35.0876C123.724 35.0876 123.573 35.1195 123.44 35.1832C123.307 35.2412 123.194 35.3253 123.101 35.4354C123.008 35.5398 122.936 35.6644 122.884 35.8093C122.831 35.9542 122.805 36.1079 122.805 36.2702V38.9224H121.814V34.4267ZM129.842 35.9311C129.801 35.6528 129.688 35.4441 129.503 35.305C129.323 35.16 129.094 35.0876 128.816 35.0876C128.688 35.0876 128.552 35.1108 128.407 35.1571C128.262 35.1977 128.129 35.2789 128.007 35.4006C127.886 35.5166 127.784 35.6818 127.703 35.8963C127.622 36.105 127.581 36.3803 127.581 36.7224C127.581 36.9079 127.601 37.0934 127.642 37.2789C127.688 37.4644 127.758 37.6296 127.851 37.7745C127.949 37.9195 128.074 38.0383 128.225 38.1311C128.375 38.218 128.558 38.2615 128.772 38.2615C129.062 38.2615 129.3 38.1716 129.486 37.9919C129.677 37.8122 129.796 37.56 129.842 37.2354H130.833C130.741 37.8209 130.517 38.2702 130.164 38.5832C129.816 38.8905 129.352 39.0441 128.772 39.0441C128.419 39.0441 128.106 38.9861 127.833 38.8702C127.567 38.7485 127.341 38.5861 127.155 38.3832C126.97 38.1745 126.828 37.9282 126.729 37.6441C126.636 37.36 126.59 37.0528 126.59 36.7224C126.59 36.3861 126.636 36.0702 126.729 35.7745C126.822 35.4789 126.961 35.2238 127.146 35.0093C127.332 34.789 127.561 34.618 127.833 34.4963C128.112 34.3687 128.436 34.305 128.807 34.305C129.068 34.305 129.315 34.3398 129.546 34.4093C129.784 34.4731 129.993 34.5716 130.172 34.705C130.358 34.8383 130.509 35.0064 130.625 35.2093C130.741 35.4122 130.81 35.6528 130.833 35.9311H129.842ZM134.726 36.2789C134.714 36.1224 134.68 35.9716 134.622 35.8267C134.57 35.6818 134.494 35.5571 134.396 35.4528C134.303 35.3427 134.187 35.2557 134.048 35.1919C133.914 35.1224 133.764 35.0876 133.596 35.0876C133.422 35.0876 133.262 35.1195 133.117 35.1832C132.978 35.2412 132.857 35.3253 132.752 35.4354C132.654 35.5398 132.572 35.6644 132.509 35.8093C132.451 35.9542 132.419 36.1108 132.413 36.2789H134.726ZM132.413 36.9311C132.413 37.105 132.436 37.2731 132.483 37.4354C132.535 37.5977 132.61 37.7398 132.709 37.8615C132.807 37.9832 132.932 38.0818 133.083 38.1571C133.233 38.2267 133.413 38.2615 133.622 38.2615C133.912 38.2615 134.143 38.2006 134.317 38.0789C134.497 37.9513 134.63 37.7629 134.717 37.5137H135.657C135.604 37.7571 135.514 37.9745 135.387 38.1658C135.259 38.3571 135.106 38.5195 134.926 38.6528C134.746 38.7803 134.543 38.876 134.317 38.9398C134.097 39.0093 133.865 39.0441 133.622 39.0441C133.268 39.0441 132.955 38.9861 132.683 38.8702C132.41 38.7542 132.178 38.5919 131.987 38.3832C131.801 38.1745 131.659 37.9253 131.561 37.6354C131.468 37.3456 131.422 37.0267 131.422 36.6789C131.422 36.36 131.471 36.0586 131.57 35.7745C131.674 35.4847 131.819 35.2325 132.004 35.018C132.196 34.7977 132.425 34.6238 132.691 34.4963C132.958 34.3687 133.259 34.305 133.596 34.305C133.949 34.305 134.265 34.3803 134.543 34.5311C134.828 34.676 135.062 34.8702 135.248 35.1137C135.433 35.3571 135.567 35.6383 135.648 35.9571C135.735 36.2702 135.758 36.5948 135.717 36.9311H132.413ZM138.917 32.7137H139.909V35.0093H139.926C139.996 34.8992 140.08 34.8006 140.178 34.7137C140.277 34.6267 140.384 34.5542 140.5 34.4963C140.622 34.4325 140.746 34.3861 140.874 34.3571C141.007 34.3224 141.138 34.305 141.265 34.305C141.619 34.305 141.926 34.3687 142.187 34.4963C142.453 34.618 142.674 34.789 142.848 35.0093C143.022 35.2238 143.152 35.476 143.239 35.7658C143.326 36.0557 143.369 36.3658 143.369 36.6963C143.369 36.9977 143.329 37.2905 143.248 37.5745C143.172 37.8586 143.053 38.1108 142.891 38.3311C142.735 38.5456 142.535 38.7195 142.291 38.8528C142.048 38.9803 141.761 39.0441 141.43 39.0441C141.28 39.0441 141.126 39.0325 140.969 39.0093C140.819 38.9919 140.674 38.9542 140.535 38.8963C140.396 38.8383 140.268 38.7629 140.152 38.6702C140.042 38.5774 139.949 38.4557 139.874 38.305H139.856V38.9224H138.917V32.7137ZM142.378 36.6789C142.378 36.476 142.352 36.2789 142.3 36.0876C142.248 35.8963 142.169 35.7282 142.065 35.5832C141.961 35.4325 141.83 35.3137 141.674 35.2267C141.517 35.134 141.338 35.0876 141.135 35.0876C140.717 35.0876 140.401 35.2325 140.187 35.5224C139.978 35.8122 139.874 36.1977 139.874 36.6789C139.874 36.905 139.9 37.1166 139.952 37.3137C140.01 37.505 140.094 37.6702 140.204 37.8093C140.314 37.9485 140.445 38.0586 140.596 38.1398C140.752 38.2209 140.932 38.2615 141.135 38.2615C141.361 38.2615 141.552 38.2151 141.709 38.1224C141.865 38.0296 141.993 37.9108 142.091 37.7658C142.196 37.6151 142.268 37.447 142.309 37.2615C142.355 37.0702 142.378 36.876 142.378 36.6789ZM143.711 34.4267H144.798L145.972 37.7832H145.99L147.129 34.4267H148.164L146.416 39.1658C146.335 39.3687 146.253 39.5629 146.172 39.7485C146.097 39.934 146.001 40.0963 145.885 40.2354C145.775 40.3803 145.636 40.4934 145.468 40.5745C145.3 40.6615 145.085 40.705 144.824 40.705C144.593 40.705 144.364 40.6876 144.137 40.6528V39.818C144.219 39.8296 144.297 39.8412 144.372 39.8528C144.448 39.8702 144.526 39.8789 144.607 39.8789C144.723 39.8789 144.819 39.8644 144.894 39.8354C144.969 39.8064 145.03 39.7629 145.077 39.705C145.129 39.6528 145.172 39.589 145.207 39.5137C145.242 39.4383 145.274 39.3513 145.303 39.2528L145.416 38.905L143.711 34.4267ZM152.936 32.7137H154.093L156.484 38.9224H155.319L154.736 37.2789H152.258L151.676 38.9224H150.554L152.936 32.7137ZM152.554 36.4528H154.449L153.519 33.7832H153.493L152.554 36.4528ZM161.171 38.9224H160.232V38.3137H160.215C160.081 38.5745 159.887 38.7629 159.632 38.8789C159.377 38.989 159.107 39.0441 158.823 39.0441C158.47 39.0441 158.16 38.9832 157.893 38.8615C157.632 38.734 157.415 38.5629 157.241 38.3485C157.067 38.134 156.936 37.8818 156.849 37.5919C156.762 37.2963 156.719 36.9803 156.719 36.6441C156.719 36.2383 156.774 35.8876 156.884 35.5919C156.994 35.2963 157.139 35.0528 157.319 34.8615C157.504 34.6702 157.713 34.5311 157.945 34.4441C158.183 34.3513 158.423 34.305 158.667 34.305C158.806 34.305 158.948 34.3195 159.093 34.3485C159.238 34.3716 159.377 34.4122 159.51 34.4702C159.644 34.5282 159.765 34.6035 159.875 34.6963C159.991 34.7832 160.087 34.8876 160.162 35.0093H160.18V32.7137H161.171V38.9224ZM157.71 36.7224C157.71 36.9137 157.733 37.1021 157.78 37.2876C157.832 37.4731 157.907 37.6383 158.006 37.7832C158.11 37.9282 158.241 38.0441 158.397 38.1311C158.554 38.218 158.739 38.2615 158.954 38.2615C159.174 38.2615 159.362 38.2151 159.519 38.1224C159.681 38.0296 159.812 37.9079 159.91 37.7571C160.015 37.6064 160.09 37.4383 160.136 37.2528C160.189 37.0615 160.215 36.8673 160.215 36.6702C160.215 36.1716 160.102 35.7832 159.875 35.505C159.655 35.2267 159.354 35.0876 158.971 35.0876C158.739 35.0876 158.542 35.1369 158.38 35.2354C158.223 35.3282 158.093 35.4528 157.989 35.6093C157.89 35.76 157.817 35.934 157.771 36.1311C157.731 36.3224 157.71 36.5195 157.71 36.7224ZM161.809 34.4267H162.887L164.026 37.8789H164.044L165.139 34.4267H166.165L164.557 38.9224H163.444L161.809 34.4267ZM169.848 36.2789C169.837 36.1224 169.802 35.9716 169.744 35.8267C169.692 35.6818 169.616 35.5571 169.518 35.4528C169.425 35.3427 169.309 35.2557 169.17 35.1919C169.037 35.1224 168.886 35.0876 168.718 35.0876C168.544 35.0876 168.385 35.1195 168.24 35.1832C168.101 35.2412 167.979 35.3253 167.874 35.4354C167.776 35.5398 167.695 35.6644 167.631 35.8093C167.573 35.9542 167.541 36.1108 167.535 36.2789H169.848ZM167.535 36.9311C167.535 37.105 167.559 37.2731 167.605 37.4354C167.657 37.5977 167.732 37.7398 167.831 37.8615C167.93 37.9832 168.054 38.0818 168.205 38.1571C168.356 38.2267 168.535 38.2615 168.744 38.2615C169.034 38.2615 169.266 38.2006 169.44 38.0789C169.619 37.9513 169.753 37.7629 169.84 37.5137H170.779C170.727 37.7571 170.637 37.9745 170.509 38.1658C170.382 38.3571 170.228 38.5195 170.048 38.6528C169.869 38.7803 169.666 38.876 169.44 38.9398C169.219 39.0093 168.987 39.0441 168.744 39.0441C168.39 39.0441 168.077 38.9861 167.805 38.8702C167.532 38.7542 167.301 38.5919 167.109 38.3832C166.924 38.1745 166.782 37.9253 166.683 37.6354C166.59 37.3456 166.544 37.0267 166.544 36.6789C166.544 36.36 166.593 36.0586 166.692 35.7745C166.796 35.4847 166.941 35.2325 167.127 35.018C167.318 34.7977 167.547 34.6238 167.814 34.4963C168.08 34.3687 168.382 34.305 168.718 34.305C169.072 34.305 169.387 34.3803 169.666 34.5311C169.95 34.676 170.185 34.8702 170.37 35.1137C170.556 35.3571 170.689 35.6383 170.77 35.9571C170.857 36.2702 170.88 36.5948 170.84 36.9311H167.535ZM171.593 34.4267H172.524V35.2963H172.541C172.57 35.1745 172.625 35.0557 172.706 34.9398C172.793 34.8238 172.895 34.7195 173.011 34.6267C173.132 34.5282 173.266 34.4499 173.411 34.3919C173.556 34.334 173.703 34.305 173.854 34.305C173.97 34.305 174.048 34.3079 174.089 34.3137C174.135 34.3195 174.182 34.3253 174.228 34.3311V35.2876C174.158 35.276 174.086 35.2673 174.011 35.2615C173.941 35.2499 173.872 35.2441 173.802 35.2441C173.634 35.2441 173.474 35.2789 173.324 35.3485C173.179 35.4122 173.051 35.5108 172.941 35.6441C172.831 35.7716 172.744 35.9311 172.68 36.1224C172.616 36.3137 172.585 36.534 172.585 36.7832V38.9224H171.593V34.4267ZM174.198 34.4267H174.946V33.0789H175.937V34.4267H176.833V35.1658H175.937V37.5658C175.937 37.6702 175.94 37.76 175.946 37.8354C175.958 37.9108 175.978 37.9745 176.007 38.0267C176.042 38.0789 176.091 38.1195 176.155 38.1485C176.218 38.1716 176.305 38.1832 176.416 38.1832C176.485 38.1832 176.555 38.1832 176.624 38.1832C176.694 38.1774 176.763 38.1658 176.833 38.1485V38.9137C176.723 38.9253 176.616 38.9369 176.511 38.9485C176.407 38.96 176.3 38.9658 176.189 38.9658C175.929 38.9658 175.717 38.9427 175.555 38.8963C175.398 38.8441 175.274 38.7716 175.181 38.6789C175.094 38.5803 175.033 38.4586 174.998 38.3137C174.969 38.1687 174.952 38.0035 174.946 37.818V35.1658H174.198V34.4267ZM177.572 32.7137H178.563V33.6528H177.572V32.7137ZM177.572 34.4267H178.563V38.9224H177.572V34.4267ZM180.391 37.4789C180.42 37.7687 180.53 37.9716 180.722 38.0876C180.913 38.2035 181.142 38.2615 181.409 38.2615C181.502 38.2615 181.606 38.2557 181.722 38.2441C181.844 38.2267 181.957 38.1977 182.061 38.1571C182.165 38.1166 182.249 38.0586 182.313 37.9832C182.383 37.9021 182.415 37.7977 182.409 37.6702C182.403 37.5427 182.357 37.4383 182.27 37.3571C182.183 37.276 182.07 37.2122 181.93 37.1658C181.797 37.1137 181.644 37.0702 181.47 37.0354C181.296 37.0006 181.119 36.9629 180.939 36.9224C180.754 36.8818 180.574 36.8325 180.4 36.7745C180.232 36.7166 180.078 36.6383 179.939 36.5398C179.806 36.4412 179.699 36.3166 179.617 36.1658C179.536 36.0093 179.496 35.818 179.496 35.5919C179.496 35.3485 179.554 35.1456 179.67 34.9832C179.791 34.8151 179.942 34.6818 180.122 34.5832C180.307 34.4789 180.51 34.4064 180.73 34.3658C180.957 34.3253 181.171 34.305 181.374 34.305C181.606 34.305 181.826 34.3311 182.035 34.3832C182.249 34.4296 182.441 34.5079 182.609 34.618C182.783 34.7282 182.925 34.8731 183.035 35.0528C183.151 35.2267 183.223 35.4383 183.252 35.6876H182.217C182.171 35.4499 182.061 35.2905 181.887 35.2093C181.719 35.1282 181.525 35.0876 181.304 35.0876C181.235 35.0876 181.151 35.0934 181.052 35.105C180.959 35.1166 180.87 35.1398 180.783 35.1745C180.702 35.2035 180.632 35.2499 180.574 35.3137C180.516 35.3716 180.487 35.4499 180.487 35.5485C180.487 35.6702 180.528 35.7687 180.609 35.8441C180.696 35.9195 180.806 35.9832 180.939 36.0354C181.078 36.0818 181.235 36.1224 181.409 36.1571C181.583 36.1919 181.762 36.2296 181.948 36.2702C182.128 36.3108 182.304 36.36 182.478 36.418C182.652 36.476 182.806 36.5542 182.939 36.6528C183.078 36.7513 183.188 36.876 183.27 37.0267C183.357 37.1774 183.4 37.3629 183.4 37.5832C183.4 37.8499 183.339 38.076 183.217 38.2615C183.096 38.447 182.936 38.5977 182.739 38.7137C182.548 38.8296 182.333 38.9137 182.096 38.9658C181.858 39.018 181.623 39.0441 181.391 39.0441C181.107 39.0441 180.844 39.0122 180.6 38.9485C180.362 38.8847 180.154 38.789 179.974 38.6615C179.8 38.5282 179.661 38.3658 179.557 38.1745C179.458 37.9774 179.406 37.7456 179.4 37.4789H180.391ZM187.24 36.2789C187.228 36.1224 187.193 35.9716 187.135 35.8267C187.083 35.6818 187.008 35.5571 186.909 35.4528C186.816 35.3427 186.701 35.2557 186.561 35.1919C186.428 35.1224 186.277 35.0876 186.109 35.0876C185.935 35.0876 185.776 35.1195 185.631 35.1832C185.492 35.2412 185.37 35.3253 185.266 35.4354C185.167 35.5398 185.086 35.6644 185.022 35.8093C184.964 35.9542 184.932 36.1108 184.927 36.2789H187.24ZM184.927 36.9311C184.927 37.105 184.95 37.2731 184.996 37.4354C185.048 37.5977 185.124 37.7398 185.222 37.8615C185.321 37.9832 185.445 38.0818 185.596 38.1571C185.747 38.2267 185.927 38.2615 186.135 38.2615C186.425 38.2615 186.657 38.2006 186.831 38.0789C187.011 37.9513 187.144 37.7629 187.231 37.5137H188.17C188.118 37.7571 188.028 37.9745 187.901 38.1658C187.773 38.3571 187.619 38.5195 187.44 38.6528C187.26 38.7803 187.057 38.876 186.831 38.9398C186.611 39.0093 186.379 39.0441 186.135 39.0441C185.782 39.0441 185.469 38.9861 185.196 38.8702C184.924 38.7542 184.692 38.5919 184.501 38.3832C184.315 38.1745 184.173 37.9253 184.074 37.6354C183.982 37.3456 183.935 37.0267 183.935 36.6789C183.935 36.36 183.985 36.0586 184.083 35.7745C184.187 35.4847 184.332 35.2325 184.518 35.018C184.709 34.7977 184.938 34.6238 185.205 34.4963C185.472 34.3687 185.773 34.305 186.109 34.305C186.463 34.305 186.779 34.3803 187.057 34.5311C187.341 34.676 187.576 34.8702 187.761 35.1137C187.947 35.3571 188.08 35.6383 188.161 35.9571C188.248 36.2702 188.272 36.5948 188.231 36.9311H184.927ZM188.985 34.4267H189.924V35.0528H189.95C190.025 34.9427 190.106 34.8412 190.193 34.7485C190.28 34.6557 190.376 34.5774 190.48 34.5137C190.59 34.4499 190.715 34.4006 190.854 34.3658C190.993 34.3253 191.153 34.305 191.332 34.305C191.605 34.305 191.857 34.3658 192.089 34.4876C192.327 34.6093 192.495 34.7977 192.593 35.0528C192.761 34.8209 192.956 34.6383 193.176 34.505C193.396 34.3716 193.672 34.305 194.002 34.305C194.477 34.305 194.845 34.4209 195.106 34.6528C195.373 34.8847 195.506 35.2731 195.506 35.818V38.9224H194.515V36.2963C194.515 36.1166 194.509 35.9542 194.498 35.8093C194.486 35.6586 194.451 35.5311 194.393 35.4267C194.341 35.3166 194.26 35.2325 194.15 35.1745C194.04 35.1166 193.889 35.0876 193.698 35.0876C193.361 35.0876 193.118 35.1919 192.967 35.4006C192.816 35.6093 192.741 35.905 192.741 36.2876V38.9224H191.75V36.0354C191.75 35.7224 191.692 35.4876 191.576 35.3311C191.466 35.1687 191.26 35.0876 190.958 35.0876C190.831 35.0876 190.706 35.1137 190.585 35.1658C190.469 35.218 190.364 35.2934 190.272 35.3919C190.185 35.4905 190.112 35.6122 190.054 35.7571C190.002 35.9021 189.976 36.0673 189.976 36.2528V38.9224H188.985V34.4267ZM199.638 36.2789C199.626 36.1224 199.591 35.9716 199.533 35.8267C199.481 35.6818 199.406 35.5571 199.307 35.4528C199.215 35.3427 199.099 35.2557 198.96 35.1919C198.826 35.1224 198.675 35.0876 198.507 35.0876C198.333 35.0876 198.174 35.1195 198.029 35.1832C197.89 35.2412 197.768 35.3253 197.664 35.4354C197.565 35.5398 197.484 35.6644 197.42 35.8093C197.362 35.9542 197.331 36.1108 197.325 36.2789H199.638ZM197.325 36.9311C197.325 37.105 197.348 37.2731 197.394 37.4354C197.446 37.5977 197.522 37.7398 197.62 37.8615C197.719 37.9832 197.844 38.0818 197.994 38.1571C198.145 38.2267 198.325 38.2615 198.533 38.2615C198.823 38.2615 199.055 38.2006 199.229 38.0789C199.409 37.9513 199.542 37.7629 199.629 37.5137H200.568C200.516 37.7571 200.426 37.9745 200.299 38.1658C200.171 38.3571 200.017 38.5195 199.838 38.6528C199.658 38.7803 199.455 38.876 199.229 38.9398C199.009 39.0093 198.777 39.0441 198.533 39.0441C198.18 39.0441 197.867 38.9861 197.594 38.8702C197.322 38.7542 197.09 38.5919 196.899 38.3832C196.713 38.1745 196.571 37.9253 196.473 37.6354C196.38 37.3456 196.333 37.0267 196.333 36.6789C196.333 36.36 196.383 36.0586 196.481 35.7745C196.586 35.4847 196.731 35.2325 196.916 35.018C197.107 34.7977 197.336 34.6238 197.603 34.4963C197.87 34.3687 198.171 34.305 198.507 34.305C198.861 34.305 199.177 34.3803 199.455 34.5311C199.739 34.676 199.974 34.8702 200.16 35.1137C200.345 35.3571 200.478 35.6383 200.56 35.9571C200.646 36.2702 200.67 36.5948 200.629 36.9311H197.325ZM201.383 34.4267H202.322V35.0876L202.339 35.105C202.49 34.8557 202.687 34.6615 202.93 34.5224C203.174 34.3774 203.444 34.305 203.739 34.305C204.232 34.305 204.62 34.4325 204.904 34.6876C205.188 34.9427 205.33 35.3253 205.33 35.8354V38.9224H204.339V36.0963C204.328 35.7427 204.252 35.4876 204.113 35.3311C203.974 35.1687 203.757 35.0876 203.461 35.0876C203.293 35.0876 203.142 35.1195 203.009 35.1832C202.875 35.2412 202.762 35.3253 202.67 35.4354C202.577 35.5398 202.504 35.6644 202.452 35.8093C202.4 35.9542 202.374 36.1079 202.374 36.2702V38.9224H201.383V34.4267ZM205.924 34.4267H206.672V33.0789H207.663V34.4267H208.558V35.1658H207.663V37.5658C207.663 37.6702 207.666 37.76 207.672 37.8354C207.683 37.9108 207.703 37.9745 207.732 38.0267C207.767 38.0789 207.816 38.1195 207.88 38.1485C207.944 38.1716 208.031 38.1832 208.141 38.1832C208.211 38.1832 208.28 38.1832 208.35 38.1832C208.419 38.1774 208.489 38.1658 208.558 38.1485V38.9137C208.448 38.9253 208.341 38.9369 208.237 38.9485C208.132 38.96 208.025 38.9658 207.915 38.9658C207.654 38.9658 207.443 38.9427 207.28 38.8963C207.124 38.8441 206.999 38.7716 206.906 38.6789C206.819 38.5803 206.758 38.4586 206.724 38.3137C206.695 38.1687 206.677 38.0035 206.672 37.818V35.1658H205.924V34.4267Z" fill="#2C5AB8"/>
</g>
<g clip-path="url(#clip3_589_9426)">
<rect x="23.6665" y="57.7826" width="176.994" height="24.8447" rx="12.4224" fill="#FAF8FC"/>
<path d="M42.9212 70.6708H39.6603V73.9317H38.7286V70.6708H35.4678V69.7391H38.7286V66.4783H39.6603V69.7391H42.9212V70.6708Z" fill="#2C5AB8"/>
<path d="M50.5092 67.4963H53.2484C53.6889 67.4963 54.0484 67.56 54.3266 67.6876C54.6049 67.8151 54.8194 67.9745 54.9701 68.1658C55.1208 68.3571 55.2223 68.5658 55.2744 68.7919C55.3324 69.018 55.3614 69.2267 55.3614 69.418C55.3614 69.6093 55.3324 69.818 55.2744 70.0441C55.2223 70.2644 55.1208 70.4702 54.9701 70.6615C54.8194 70.8528 54.6049 71.0122 54.3266 71.1397C54.0484 71.2615 53.6889 71.3223 53.2484 71.3223H51.5962V73.705H50.5092V67.4963ZM51.5962 70.4354H53.1875C53.3092 70.4354 53.4339 70.418 53.5614 70.3832C53.6889 70.3484 53.8049 70.2934 53.9092 70.218C54.0194 70.1368 54.1063 70.0325 54.1701 69.905C54.2397 69.7716 54.2744 69.6064 54.2744 69.4093C54.2744 69.2064 54.2455 69.0383 54.1875 68.905C54.1295 68.7716 54.0513 68.6673 53.9527 68.5919C53.8542 68.5108 53.7411 68.4557 53.6136 68.4267C53.486 68.3977 53.3498 68.3832 53.2049 68.3832H51.5962V70.4354ZM56.17 69.2093H57.1005V70.0789H57.1179C57.1468 69.9571 57.2019 69.8383 57.2831 69.7223C57.37 69.6064 57.4715 69.5021 57.5874 69.4093C57.7092 69.3108 57.8425 69.2325 57.9874 69.1745C58.1323 69.1166 58.2802 69.0876 58.4309 69.0876C58.5468 69.0876 58.6251 69.0905 58.6657 69.0963C58.7121 69.1021 58.7584 69.1079 58.8048 69.1137V70.0702C58.7352 70.0586 58.6628 70.0499 58.5874 70.0441C58.5179 70.0325 58.4483 70.0267 58.3787 70.0267C58.2106 70.0267 58.0512 70.0615 57.9005 70.131C57.7555 70.1948 57.628 70.2934 57.5179 70.4267C57.4077 70.5542 57.3208 70.7137 57.257 70.905C57.1932 71.0963 57.1613 71.3166 57.1613 71.5658V73.705H56.17V69.2093ZM61.1351 73.8267C60.7757 73.8267 60.454 73.7687 60.1699 73.6528C59.8916 73.531 59.654 73.3658 59.4568 73.1571C59.2655 72.9484 59.1177 72.6992 59.0134 72.4093C58.9148 72.1194 58.8655 71.8006 58.8655 71.4528C58.8655 71.1108 58.9148 70.7948 59.0134 70.505C59.1177 70.2151 59.2655 69.9658 59.4568 69.7571C59.654 69.5484 59.8916 69.3861 60.1699 69.2702C60.454 69.1484 60.7757 69.0876 61.1351 69.0876C61.4945 69.0876 61.8134 69.1484 62.0916 69.2702C62.3757 69.3861 62.6134 69.5484 62.8047 69.7571C63.0018 69.9658 63.1496 70.2151 63.2482 70.505C63.3525 70.7948 63.4047 71.1108 63.4047 71.4528C63.4047 71.8006 63.3525 72.1194 63.2482 72.4093C63.1496 72.6992 63.0018 72.9484 62.8047 73.1571C62.6134 73.3658 62.3757 73.531 62.0916 73.6528C61.8134 73.7687 61.4945 73.8267 61.1351 73.8267ZM61.1351 73.0441C61.3554 73.0441 61.5467 72.9977 61.709 72.905C61.8713 72.8122 62.0047 72.6905 62.109 72.5397C62.2134 72.389 62.2887 72.2209 62.3351 72.0354C62.3873 71.8441 62.4134 71.6499 62.4134 71.4528C62.4134 71.2615 62.3873 71.0702 62.3351 70.8789C62.2887 70.6876 62.2134 70.5194 62.109 70.3745C62.0047 70.2238 61.8713 70.1021 61.709 70.0093C61.5467 69.9166 61.3554 69.8702 61.1351 69.8702C60.9148 69.8702 60.7235 69.9166 60.5612 70.0093C60.3989 70.1021 60.2655 70.2238 60.1612 70.3745C60.0568 70.5194 59.9786 70.6876 59.9264 70.8789C59.88 71.0702 59.8568 71.2615 59.8568 71.4528C59.8568 71.6499 59.88 71.8441 59.9264 72.0354C59.9786 72.2209 60.0568 72.389 60.1612 72.5397C60.2655 72.6905 60.3989 72.8122 60.5612 72.905C60.7235 72.9977 60.9148 73.0441 61.1351 73.0441ZM66.2897 73.8267C65.9302 73.8267 65.6085 73.7687 65.3244 73.6528C65.0462 73.531 64.8085 73.3658 64.6114 73.1571C64.4201 72.9484 64.2723 72.6992 64.1679 72.4093C64.0694 72.1194 64.0201 71.8006 64.0201 71.4528C64.0201 71.1108 64.0694 70.7948 64.1679 70.505C64.2723 70.2151 64.4201 69.9658 64.6114 69.7571C64.8085 69.5484 65.0462 69.3861 65.3244 69.2702C65.6085 69.1484 65.9302 69.0876 66.2897 69.0876C66.6491 69.0876 66.9679 69.1484 67.2462 69.2702C67.5302 69.3861 67.7679 69.5484 67.9592 69.7571C68.1563 69.9658 68.3042 70.2151 68.4027 70.505C68.5071 70.7948 68.5592 71.1108 68.5592 71.4528C68.5592 71.8006 68.5071 72.1194 68.4027 72.4093C68.3042 72.6992 68.1563 72.9484 67.9592 73.1571C67.7679 73.3658 67.5302 73.531 67.2462 73.6528C66.9679 73.7687 66.6491 73.8267 66.2897 73.8267ZM66.2897 73.0441C66.51 73.0441 66.7013 72.9977 66.8636 72.905C67.0259 72.8122 67.1592 72.6905 67.2636 72.5397C67.3679 72.389 67.4433 72.2209 67.4897 72.0354C67.5418 71.8441 67.5679 71.6499 67.5679 71.4528C67.5679 71.2615 67.5418 71.0702 67.4897 70.8789C67.4433 70.6876 67.3679 70.5194 67.2636 70.3745C67.1592 70.2238 67.0259 70.1021 66.8636 70.0093C66.7013 69.9166 66.51 69.8702 66.2897 69.8702C66.0694 69.8702 65.8781 69.9166 65.7157 70.0093C65.5534 70.1021 65.4201 70.2238 65.3157 70.3745C65.2114 70.5194 65.1331 70.6876 65.081 70.8789C65.0346 71.0702 65.0114 71.2615 65.0114 71.4528C65.0114 71.6499 65.0346 71.8441 65.081 72.0354C65.1331 72.2209 65.2114 72.389 65.3157 72.5397C65.4201 72.6905 65.5534 72.8122 65.7157 72.905C65.8781 72.9977 66.0694 73.0441 66.2897 73.0441ZM68.9399 69.2093H69.679V68.8354C69.679 68.5513 69.7138 68.3223 69.7833 68.1484C69.8529 67.9687 69.9457 67.8325 70.0616 67.7397C70.1775 67.6412 70.308 67.5774 70.4529 67.5484C70.6036 67.5137 70.7602 67.4963 70.9225 67.4963C71.2413 67.4963 71.4732 67.5166 71.6181 67.5571V68.331C71.5544 68.3137 71.4848 68.3021 71.4094 68.2963C71.3399 68.2847 71.2558 68.2789 71.1573 68.2789C71.0239 68.2789 70.908 68.3108 70.8094 68.3745C70.7167 68.4383 70.6703 68.5629 70.6703 68.7484V69.2093H71.5138V69.9484H70.6703V73.705H69.679V69.9484H68.9399V69.2093ZM76.6073 73.8267C76.2478 73.8267 75.9261 73.7687 75.642 73.6528C75.3638 73.531 75.1261 73.3658 74.929 73.1571C74.7377 72.9484 74.5899 72.6992 74.4855 72.4093C74.387 72.1194 74.3377 71.8006 74.3377 71.4528C74.3377 71.1108 74.387 70.7948 74.4855 70.505C74.5899 70.2151 74.7377 69.9658 74.929 69.7571C75.1261 69.5484 75.3638 69.3861 75.642 69.2702C75.9261 69.1484 76.2478 69.0876 76.6073 69.0876C76.9667 69.0876 77.2855 69.1484 77.5638 69.2702C77.8478 69.3861 78.0855 69.5484 78.2768 69.7571C78.4739 69.9658 78.6218 70.2151 78.7203 70.505C78.8246 70.7948 78.8768 71.1108 78.8768 71.4528C78.8768 71.8006 78.8246 72.1194 78.7203 72.4093C78.6218 72.6992 78.4739 72.9484 78.2768 73.1571C78.0855 73.3658 77.8478 73.531 77.5638 73.6528C77.2855 73.7687 76.9667 73.8267 76.6073 73.8267ZM76.6073 73.0441C76.8275 73.0441 77.0189 72.9977 77.1812 72.905C77.3435 72.8122 77.4768 72.6905 77.5812 72.5397C77.6855 72.389 77.7609 72.2209 77.8073 72.0354C77.8594 71.8441 77.8855 71.6499 77.8855 71.4528C77.8855 71.2615 77.8594 71.0702 77.8073 70.8789C77.7609 70.6876 77.6855 70.5194 77.5812 70.3745C77.4768 70.2238 77.3435 70.1021 77.1812 70.0093C77.0189 69.9166 76.8275 69.8702 76.6073 69.8702C76.387 69.8702 76.1957 69.9166 76.0333 70.0093C75.871 70.1021 75.7377 70.2238 75.6333 70.3745C75.529 70.5194 75.4507 70.6876 75.3986 70.8789C75.3522 71.0702 75.329 71.2615 75.329 71.4528C75.329 71.6499 75.3522 71.8441 75.3986 72.0354C75.4507 72.2209 75.529 72.389 75.6333 72.5397C75.7377 72.6905 75.871 72.8122 76.0333 72.905C76.1957 72.9977 76.387 73.0441 76.6073 73.0441ZM79.2575 69.2093H79.9966V68.8354C79.9966 68.5513 80.0314 68.3223 80.1009 68.1484C80.1705 67.9687 80.2633 67.8325 80.3792 67.7397C80.4951 67.6412 80.6256 67.5774 80.7705 67.5484C80.9212 67.5137 81.0777 67.4963 81.2401 67.4963C81.5589 67.4963 81.7908 67.5166 81.9357 67.5571V68.331C81.872 68.3137 81.8024 68.3021 81.727 68.2963C81.6575 68.2847 81.5734 68.2789 81.4749 68.2789C81.3415 68.2789 81.2256 68.3108 81.127 68.3745C81.0343 68.4383 80.9879 68.5629 80.9879 68.7484V69.2093H81.8314V69.9484H80.9879V73.705H79.9966V69.9484H79.2575V69.2093ZM85.0031 67.4963H87.7422C88.1828 67.4963 88.5422 67.56 88.8205 67.6876C89.0988 67.8151 89.3133 67.9745 89.464 68.1658C89.6147 68.3571 89.7162 68.5658 89.7683 68.7919C89.8263 69.018 89.8553 69.2267 89.8553 69.418C89.8553 69.6093 89.8263 69.818 89.7683 70.0441C89.7162 70.2644 89.6147 70.4702 89.464 70.6615C89.3133 70.8528 89.0988 71.0122 88.8205 71.1397C88.5422 71.2615 88.1828 71.3223 87.7422 71.3223H86.0901V73.705H85.0031V67.4963ZM86.0901 70.4354H87.6814C87.8031 70.4354 87.9278 70.418 88.0553 70.3832C88.1828 70.3484 88.2988 70.2934 88.4031 70.218C88.5133 70.1368 88.6002 70.0325 88.664 69.905C88.7335 69.7716 88.7683 69.6064 88.7683 69.4093C88.7683 69.2064 88.7393 69.0383 88.6814 68.905C88.6234 68.7716 88.5451 68.6673 88.4466 68.5919C88.348 68.5108 88.235 68.4557 88.1075 68.4267C87.9799 68.3977 87.8437 68.3832 87.6988 68.3832H86.0901V70.4354ZM93.7509 71.0615C93.7393 70.905 93.7045 70.7542 93.6465 70.6093C93.5943 70.4644 93.519 70.3397 93.4204 70.2354C93.3277 70.1252 93.2117 70.0383 93.0726 69.9745C92.9393 69.905 92.7886 69.8702 92.6204 69.8702C92.4465 69.8702 92.2871 69.9021 92.1422 69.9658C92.003 70.0238 91.8813 70.1079 91.777 70.218C91.6784 70.3223 91.5972 70.447 91.5335 70.5919C91.4755 70.7368 91.4436 70.8934 91.4378 71.0615H93.7509ZM91.4378 71.7137C91.4378 71.8876 91.461 72.0557 91.5074 72.218C91.5596 72.3803 91.6349 72.5223 91.7335 72.6441C91.832 72.7658 91.9567 72.8644 92.1074 72.9397C92.2581 73.0093 92.4378 73.0441 92.6465 73.0441C92.9364 73.0441 93.1683 72.9832 93.3422 72.8615C93.5219 72.7339 93.6552 72.5455 93.7422 72.2963H94.6813C94.6291 72.5397 94.5393 72.7571 94.4117 72.9484C94.2842 73.1397 94.1306 73.3021 93.9509 73.4354C93.7712 73.5629 93.5683 73.6586 93.3422 73.7223C93.1219 73.7919 92.89 73.8267 92.6465 73.8267C92.2929 73.8267 91.9799 73.7687 91.7074 73.6528C91.4349 73.5368 91.203 73.3745 91.0117 73.1658C90.8262 72.9571 90.6842 72.7079 90.5857 72.418C90.4929 72.1281 90.4465 71.8093 90.4465 71.4615C90.4465 71.1426 90.4958 70.8412 90.5943 70.5571C90.6987 70.2673 90.8436 70.0151 91.0291 69.8006C91.2204 69.5803 91.4494 69.4064 91.7161 69.2789C91.9828 69.1513 92.2842 69.0876 92.6204 69.0876C92.9741 69.0876 93.29 69.1629 93.5683 69.3137C93.8523 69.4586 94.0871 69.6528 94.2726 69.8963C94.4581 70.1397 94.5914 70.4209 94.6726 70.7397C94.7596 71.0528 94.7828 71.3774 94.7422 71.7137H91.4378ZM95.4958 69.2093H96.4262V70.0789H96.4436C96.4726 69.9571 96.5277 69.8383 96.6088 69.7223C96.6958 69.6064 96.7972 69.5021 96.9132 69.4093C97.0349 69.3108 97.1682 69.2325 97.3132 69.1745C97.4581 69.1166 97.6059 69.0876 97.7566 69.0876C97.8726 69.0876 97.9508 69.0905 97.9914 69.0963C98.0378 69.1021 98.0842 69.1079 98.1306 69.1137V70.0702C98.061 70.0586 97.9885 70.0499 97.9132 70.0441C97.8436 70.0325 97.774 70.0267 97.7045 70.0267C97.5364 70.0267 97.3769 70.0615 97.2262 70.131C97.0813 70.1948 96.9537 70.2934 96.8436 70.4267C96.7335 70.5542 96.6465 70.7137 96.5827 70.905C96.519 71.0963 96.4871 71.3166 96.4871 71.5658V73.705H95.4958V69.2093ZM98.1094 69.2093H98.8485V68.8354C98.8485 68.5513 98.8833 68.3223 98.9528 68.1484C99.0224 67.9687 99.1152 67.8325 99.2311 67.7397C99.347 67.6412 99.4775 67.5774 99.6224 67.5484C99.7731 67.5137 99.9297 67.4963 100.092 67.4963C100.411 67.4963 100.643 67.5166 100.788 67.5571V68.331C100.724 68.3137 100.654 68.3021 100.579 68.2963C100.509 68.2847 100.425 68.2789 100.327 68.2789C100.193 68.2789 100.077 68.3108 99.9789 68.3745C99.8862 68.4383 99.8398 68.5629 99.8398 68.7484V69.2093H100.683V69.9484H99.8398V73.705H98.8485V69.9484H98.1094V69.2093ZM103.357 73.8267C102.997 73.8267 102.675 73.7687 102.391 73.6528C102.113 73.531 101.875 73.3658 101.678 73.1571C101.487 72.9484 101.339 72.6992 101.235 72.4093C101.136 72.1194 101.087 71.8006 101.087 71.4528C101.087 71.1108 101.136 70.7948 101.235 70.505C101.339 70.2151 101.487 69.9658 101.678 69.7571C101.875 69.5484 102.113 69.3861 102.391 69.2702C102.675 69.1484 102.997 69.0876 103.357 69.0876C103.716 69.0876 104.035 69.1484 104.313 69.2702C104.597 69.3861 104.835 69.5484 105.026 69.7571C105.223 69.9658 105.371 70.2151 105.47 70.505C105.574 70.7948 105.626 71.1108 105.626 71.4528C105.626 71.8006 105.574 72.1194 105.47 72.4093C105.371 72.6992 105.223 72.9484 105.026 73.1571C104.835 73.3658 104.597 73.531 104.313 73.6528C104.035 73.7687 103.716 73.8267 103.357 73.8267ZM103.357 73.0441C103.577 73.0441 103.768 72.9977 103.93 72.905C104.093 72.8122 104.226 72.6905 104.33 72.5397C104.435 72.389 104.51 72.2209 104.557 72.0354C104.609 71.8441 104.635 71.6499 104.635 71.4528C104.635 71.2615 104.609 71.0702 104.557 70.8789C104.51 70.6876 104.435 70.5194 104.33 70.3745C104.226 70.2238 104.093 70.1021 103.93 70.0093C103.768 69.9166 103.577 69.8702 103.357 69.8702C103.136 69.8702 102.945 69.9166 102.783 70.0093C102.62 70.1021 102.487 70.2238 102.383 70.3745C102.278 70.5194 102.2 70.6876 102.148 70.8789C102.102 71.0702 102.078 71.2615 102.078 71.4528C102.078 71.6499 102.102 71.8441 102.148 72.0354C102.2 72.2209 102.278 72.389 102.383 72.5397C102.487 72.6905 102.62 72.8122 102.783 72.905C102.945 72.9977 103.136 73.0441 103.357 73.0441ZM106.45 69.2093H107.381V70.0789H107.398C107.427 69.9571 107.482 69.8383 107.563 69.7223C107.65 69.6064 107.752 69.5021 107.868 69.4093C107.989 69.3108 108.123 69.2325 108.268 69.1745C108.413 69.1166 108.56 69.0876 108.711 69.0876C108.827 69.0876 108.905 69.0905 108.946 69.0963C108.992 69.1021 109.039 69.1079 109.085 69.1137V70.0702C109.015 70.0586 108.943 70.0499 108.868 70.0441C108.798 70.0325 108.729 70.0267 108.659 70.0267C108.491 70.0267 108.331 70.0615 108.181 70.131C108.036 70.1948 107.908 70.2934 107.798 70.4267C107.688 70.5542 107.601 70.7137 107.537 70.905C107.473 71.0963 107.442 71.3166 107.442 71.5658V73.705H106.45V69.2093ZM109.507 69.2093H110.446V69.8354H110.473C110.548 69.7252 110.629 69.6238 110.716 69.531C110.803 69.4383 110.899 69.36 111.003 69.2963C111.113 69.2325 111.238 69.1832 111.377 69.1484C111.516 69.1079 111.675 69.0876 111.855 69.0876C112.128 69.0876 112.38 69.1484 112.612 69.2702C112.849 69.3919 113.017 69.5803 113.116 69.8354C113.284 69.6035 113.478 69.4209 113.699 69.2876C113.919 69.1542 114.194 69.0876 114.525 69.0876C115 69.0876 115.368 69.2035 115.629 69.4354C115.896 69.6673 116.029 70.0557 116.029 70.6006V73.705H115.038V71.0789C115.038 70.8992 115.032 70.7368 115.02 70.5919C115.009 70.4412 114.974 70.3137 114.916 70.2093C114.864 70.0992 114.783 70.0151 114.673 69.9571C114.562 69.8992 114.412 69.8702 114.22 69.8702C113.884 69.8702 113.641 69.9745 113.49 70.1832C113.339 70.3919 113.264 70.6876 113.264 71.0702V73.705H112.273V70.818C112.273 70.505 112.215 70.2702 112.099 70.1137C111.988 69.9513 111.783 69.8702 111.481 69.8702C111.354 69.8702 111.229 69.8963 111.107 69.9484C110.991 70.0006 110.887 70.076 110.794 70.1745C110.707 70.2731 110.635 70.3948 110.577 70.5397C110.525 70.6847 110.499 70.8499 110.499 71.0354V73.705H109.507V69.2093ZM120.839 72.705C120.839 72.8267 120.853 72.9137 120.882 72.9658C120.917 73.018 120.981 73.0441 121.074 73.0441C121.103 73.0441 121.137 73.0441 121.178 73.0441C121.218 73.0441 121.265 73.0383 121.317 73.0267V73.7137C121.282 73.7252 121.236 73.7368 121.178 73.7484C121.126 73.7658 121.071 73.7803 121.013 73.7919C120.955 73.8035 120.897 73.8122 120.839 73.818C120.781 73.8238 120.732 73.8267 120.691 73.8267C120.488 73.8267 120.32 73.7861 120.187 73.705C120.053 73.6238 119.966 73.4818 119.926 73.2789C119.729 73.4702 119.485 73.6093 119.195 73.6963C118.911 73.7832 118.636 73.8267 118.369 73.8267C118.166 73.8267 117.972 73.7977 117.787 73.7397C117.601 73.6876 117.436 73.6093 117.291 73.505C117.152 73.3948 117.039 73.2586 116.952 73.0963C116.871 72.9281 116.83 72.7339 116.83 72.5137C116.83 72.2354 116.879 72.0093 116.978 71.8354C117.082 71.6615 117.216 71.5252 117.378 71.4267C117.546 71.3281 117.732 71.2586 117.934 71.218C118.143 71.1716 118.352 71.1368 118.561 71.1137C118.74 71.0789 118.911 71.0557 119.074 71.0441C119.236 71.0267 119.378 71.0006 119.5 70.9658C119.627 70.931 119.726 70.8789 119.795 70.8093C119.871 70.7339 119.908 70.6238 119.908 70.4789C119.908 70.3513 119.876 70.247 119.813 70.1658C119.755 70.0847 119.679 70.0238 119.587 69.9832C119.5 69.9368 119.401 69.9079 119.291 69.8963C119.181 69.8789 119.076 69.8702 118.978 69.8702C118.7 69.8702 118.471 69.9281 118.291 70.0441C118.111 70.16 118.01 70.3397 117.987 70.5832H116.995C117.013 70.2934 117.082 70.0528 117.204 69.8615C117.326 69.6702 117.479 69.5166 117.665 69.4006C117.856 69.2847 118.071 69.2035 118.308 69.1571C118.546 69.1108 118.79 69.0876 119.039 69.0876C119.259 69.0876 119.476 69.1108 119.691 69.1571C119.905 69.2035 120.097 69.2789 120.265 69.3832C120.439 69.4876 120.578 69.6238 120.682 69.7919C120.787 69.9542 120.839 70.1542 120.839 70.3919V72.705ZM119.847 71.4528C119.697 71.5513 119.511 71.6122 119.291 71.6354C119.071 71.6528 118.85 71.6818 118.63 71.7223C118.526 71.7397 118.424 71.7658 118.326 71.8006C118.227 71.8296 118.14 71.8731 118.065 71.931C117.99 71.9832 117.929 72.0557 117.882 72.1484C117.842 72.2354 117.821 72.3426 117.821 72.4702C117.821 72.5803 117.853 72.6731 117.917 72.7484C117.981 72.8238 118.056 72.8847 118.143 72.931C118.236 72.9716 118.334 73.0006 118.439 73.018C118.549 73.0354 118.647 73.0441 118.734 73.0441C118.845 73.0441 118.963 73.0296 119.091 73.0006C119.218 72.9716 119.337 72.9223 119.447 72.8528C119.563 72.7832 119.659 72.6963 119.734 72.5919C119.81 72.4818 119.847 72.3484 119.847 72.1919V71.4528ZM121.905 69.2093H122.845V69.8702L122.862 69.8876C123.013 69.6383 123.21 69.4441 123.453 69.305C123.697 69.16 123.966 69.0876 124.262 69.0876C124.755 69.0876 125.143 69.2151 125.427 69.4702C125.711 69.7252 125.853 70.1079 125.853 70.618V73.705H124.862V70.8789C124.85 70.5252 124.775 70.2702 124.636 70.1137C124.497 69.9513 124.279 69.8702 123.984 69.8702C123.816 69.8702 123.665 69.9021 123.532 69.9658C123.398 70.0238 123.285 70.1079 123.192 70.218C123.1 70.3223 123.027 70.447 122.975 70.5919C122.923 70.7368 122.897 70.8905 122.897 71.0528V73.705H121.905V69.2093ZM129.933 70.7137C129.893 70.4354 129.78 70.2267 129.594 70.0876C129.415 69.9426 129.186 69.8702 128.907 69.8702C128.78 69.8702 128.644 69.8934 128.499 69.9397C128.354 69.9803 128.22 70.0615 128.099 70.1832C127.977 70.2992 127.875 70.4644 127.794 70.6789C127.713 70.8876 127.673 71.1629 127.673 71.505C127.673 71.6905 127.693 71.876 127.733 72.0615C127.78 72.247 127.849 72.4122 127.942 72.5571C128.041 72.7021 128.165 72.8209 128.316 72.9137C128.467 73.0006 128.649 73.0441 128.864 73.0441C129.154 73.0441 129.391 72.9542 129.577 72.7745C129.768 72.5948 129.887 72.3426 129.933 72.018H130.925C130.832 72.6035 130.609 73.0528 130.255 73.3658C129.907 73.6731 129.444 73.8267 128.864 73.8267C128.51 73.8267 128.197 73.7687 127.925 73.6528C127.658 73.531 127.432 73.3687 127.246 73.1658C127.061 72.9571 126.919 72.7108 126.82 72.4267C126.728 72.1426 126.681 71.8354 126.681 71.505C126.681 71.1687 126.728 70.8528 126.82 70.5571C126.913 70.2615 127.052 70.0064 127.238 69.7919C127.423 69.5716 127.652 69.4006 127.925 69.2789C128.203 69.1513 128.528 69.0876 128.899 69.0876C129.16 69.0876 129.406 69.1223 129.638 69.1919C129.875 69.2557 130.084 69.3542 130.264 69.4876C130.449 69.6209 130.6 69.789 130.716 69.9919C130.832 70.1948 130.902 70.4354 130.925 70.7137H129.933ZM134.817 71.0615C134.806 70.905 134.771 70.7542 134.713 70.6093C134.661 70.4644 134.586 70.3397 134.487 70.2354C134.394 70.1252 134.278 70.0383 134.139 69.9745C134.006 69.905 133.855 69.8702 133.687 69.8702C133.513 69.8702 133.354 69.9021 133.209 69.9658C133.07 70.0238 132.948 70.1079 132.844 70.218C132.745 70.3223 132.664 70.447 132.6 70.5919C132.542 70.7368 132.51 70.8934 132.504 71.0615H134.817ZM132.504 71.7137C132.504 71.8876 132.528 72.0557 132.574 72.218C132.626 72.3803 132.702 72.5223 132.8 72.6441C132.899 72.7658 133.023 72.8644 133.174 72.9397C133.325 73.0093 133.504 73.0441 133.713 73.0441C134.003 73.0441 134.235 72.9832 134.409 72.8615C134.588 72.7339 134.722 72.5455 134.809 72.2963H135.748C135.696 72.5397 135.606 72.7571 135.478 72.9484C135.351 73.1397 135.197 73.3021 135.017 73.4354C134.838 73.5629 134.635 73.6586 134.409 73.7223C134.188 73.7919 133.957 73.8267 133.713 73.8267C133.359 73.8267 133.046 73.7687 132.774 73.6528C132.502 73.5368 132.27 73.3745 132.078 73.1658C131.893 72.9571 131.751 72.7079 131.652 72.418C131.559 72.1281 131.513 71.8093 131.513 71.4615C131.513 71.1426 131.562 70.8412 131.661 70.5571C131.765 70.2673 131.91 70.0151 132.096 69.8006C132.287 69.5803 132.516 69.4064 132.783 69.2789C133.049 69.1513 133.351 69.0876 133.687 69.0876C134.041 69.0876 134.357 69.1629 134.635 69.3137C134.919 69.4586 135.154 69.6528 135.339 69.8963C135.525 70.1397 135.658 70.4209 135.739 70.7397C135.826 71.0528 135.849 71.3774 135.809 71.7137H132.504ZM139.009 67.4963H140V69.7919H140.017C140.087 69.6818 140.171 69.5832 140.269 69.4963C140.368 69.4093 140.475 69.3368 140.591 69.2789C140.713 69.2151 140.838 69.1687 140.965 69.1397C141.098 69.105 141.229 69.0876 141.356 69.0876C141.71 69.0876 142.017 69.1513 142.278 69.2789C142.545 69.4006 142.765 69.5716 142.939 69.7919C143.113 70.0064 143.243 70.2586 143.33 70.5484C143.417 70.8383 143.461 71.1484 143.461 71.4789C143.461 71.7803 143.42 72.0731 143.339 72.3571C143.264 72.6412 143.145 72.8934 142.983 73.1137C142.826 73.3281 142.626 73.5021 142.383 73.6354C142.139 73.7629 141.852 73.8267 141.522 73.8267C141.371 73.8267 141.217 73.8151 141.061 73.7919C140.91 73.7745 140.765 73.7368 140.626 73.6789C140.487 73.6209 140.359 73.5455 140.243 73.4528C140.133 73.36 140.041 73.2383 139.965 73.0876H139.948V73.705H139.009V67.4963ZM142.469 71.4615C142.469 71.2586 142.443 71.0615 142.391 70.8702C142.339 70.6789 142.261 70.5108 142.156 70.3658C142.052 70.2151 141.922 70.0963 141.765 70.0093C141.609 69.9166 141.429 69.8702 141.226 69.8702C140.809 69.8702 140.493 70.0151 140.278 70.305C140.069 70.5948 139.965 70.9803 139.965 71.4615C139.965 71.6876 139.991 71.8992 140.043 72.0963C140.101 72.2876 140.185 72.4528 140.296 72.5919C140.406 72.731 140.536 72.8412 140.687 72.9223C140.843 73.0035 141.023 73.0441 141.226 73.0441C141.452 73.0441 141.643 72.9977 141.8 72.905C141.956 72.8122 142.084 72.6934 142.183 72.5484C142.287 72.3977 142.359 72.2296 142.4 72.0441C142.446 71.8528 142.469 71.6586 142.469 71.4615ZM143.803 69.2093H144.89L146.064 72.5658H146.081L147.22 69.2093H148.255L146.507 73.9484C146.426 74.1513 146.345 74.3455 146.264 74.531C146.188 74.7166 146.093 74.8789 145.977 75.018C145.867 75.1629 145.727 75.276 145.559 75.3571C145.391 75.4441 145.177 75.4876 144.916 75.4876C144.684 75.4876 144.455 75.4702 144.229 75.4354V74.6006C144.31 74.6122 144.388 74.6238 144.464 74.6354C144.539 74.6528 144.617 74.6615 144.698 74.6615C144.814 74.6615 144.91 74.647 144.985 74.618C145.061 74.589 145.122 74.5455 145.168 74.4876C145.22 74.4354 145.264 74.3716 145.298 74.2963C145.333 74.2209 145.365 74.1339 145.394 74.0354L145.507 73.6876L143.803 69.2093ZM151.367 67.4963H152.454V72.7658H155.61V73.705H151.367V67.4963ZM158.282 73.8267C157.922 73.8267 157.601 73.7687 157.317 73.6528C157.038 73.531 156.801 73.3658 156.604 73.1571C156.412 72.9484 156.264 72.6992 156.16 72.4093C156.062 72.1194 156.012 71.8006 156.012 71.4528C156.012 71.1108 156.062 70.7948 156.16 70.505C156.264 70.2151 156.412 69.9658 156.604 69.7571C156.801 69.5484 157.038 69.3861 157.317 69.2702C157.601 69.1484 157.922 69.0876 158.282 69.0876C158.641 69.0876 158.96 69.1484 159.238 69.2702C159.522 69.3861 159.76 69.5484 159.951 69.7571C160.149 69.9658 160.296 70.2151 160.395 70.505C160.499 70.7948 160.551 71.1108 160.551 71.4528C160.551 71.8006 160.499 72.1194 160.395 72.4093C160.296 72.6992 160.149 72.9484 159.951 73.1571C159.76 73.3658 159.522 73.531 159.238 73.6528C158.96 73.7687 158.641 73.8267 158.282 73.8267ZM158.282 73.0441C158.502 73.0441 158.693 72.9977 158.856 72.905C159.018 72.8122 159.151 72.6905 159.256 72.5397C159.36 72.389 159.435 72.2209 159.482 72.0354C159.534 71.8441 159.56 71.6499 159.56 71.4528C159.56 71.2615 159.534 71.0702 159.482 70.8789C159.435 70.6876 159.36 70.5194 159.256 70.3745C159.151 70.2238 159.018 70.1021 158.856 70.0093C158.693 69.9166 158.502 69.8702 158.282 69.8702C158.062 69.8702 157.87 69.9166 157.708 70.0093C157.546 70.1021 157.412 70.2238 157.308 70.3745C157.204 70.5194 157.125 70.6876 157.073 70.8789C157.027 71.0702 157.004 71.2615 157.004 71.4528C157.004 71.6499 157.027 71.8441 157.073 72.0354C157.125 72.2209 157.204 72.389 157.308 72.5397C157.412 72.6905 157.546 72.8122 157.708 72.905C157.87 72.9977 158.062 73.0441 158.282 73.0441ZM164.41 70.7137C164.37 70.4354 164.257 70.2267 164.071 70.0876C163.891 69.9426 163.662 69.8702 163.384 69.8702C163.257 69.8702 163.12 69.8934 162.976 69.9397C162.831 69.9803 162.697 70.0615 162.576 70.1832C162.454 70.2992 162.352 70.4644 162.271 70.6789C162.19 70.8876 162.149 71.1629 162.149 71.505C162.149 71.6905 162.17 71.876 162.21 72.0615C162.257 72.247 162.326 72.4122 162.419 72.5571C162.518 72.7021 162.642 72.8209 162.793 72.9137C162.944 73.0006 163.126 73.0441 163.341 73.0441C163.631 73.0441 163.868 72.9542 164.054 72.7745C164.245 72.5948 164.364 72.3426 164.41 72.018H165.402C165.309 72.6035 165.086 73.0528 164.732 73.3658C164.384 73.6731 163.92 73.8267 163.341 73.8267C162.987 73.8267 162.674 73.7687 162.402 73.6528C162.135 73.531 161.909 73.3687 161.723 73.1658C161.538 72.9571 161.396 72.7108 161.297 72.4267C161.205 72.1426 161.158 71.8354 161.158 71.505C161.158 71.1687 161.205 70.8528 161.297 70.5571C161.39 70.2615 161.529 70.0064 161.715 69.7919C161.9 69.5716 162.129 69.4006 162.402 69.2789C162.68 69.1513 163.005 69.0876 163.376 69.0876C163.636 69.0876 163.883 69.1223 164.115 69.1919C164.352 69.2557 164.561 69.3542 164.741 69.4876C164.926 69.6209 165.077 69.789 165.193 69.9919C165.309 70.1948 165.378 70.4354 165.402 70.7137H164.41ZM169.973 72.705C169.973 72.8267 169.987 72.9137 170.016 72.9658C170.051 73.018 170.115 73.0441 170.207 73.0441C170.236 73.0441 170.271 73.0441 170.312 73.0441C170.352 73.0441 170.399 73.0383 170.451 73.0267V73.7137C170.416 73.7252 170.37 73.7368 170.312 73.7484C170.26 73.7658 170.204 73.7803 170.147 73.7919C170.089 73.8035 170.031 73.8122 169.973 73.818C169.915 73.8238 169.865 73.8267 169.825 73.8267C169.622 73.8267 169.454 73.7861 169.32 73.705C169.187 73.6238 169.1 73.4818 169.06 73.2789C168.862 73.4702 168.619 73.6093 168.329 73.6963C168.045 73.7832 167.77 73.8267 167.503 73.8267C167.3 73.8267 167.106 73.7977 166.92 73.7397C166.735 73.6876 166.57 73.6093 166.425 73.505C166.286 73.3948 166.173 73.2586 166.086 73.0963C166.004 72.9281 165.964 72.7339 165.964 72.5137C165.964 72.2354 166.013 72.0093 166.112 71.8354C166.216 71.6615 166.349 71.5252 166.512 71.4267C166.68 71.3281 166.865 71.2586 167.068 71.218C167.277 71.1716 167.486 71.1368 167.694 71.1137C167.874 71.0789 168.045 71.0557 168.207 71.0441C168.37 71.0267 168.512 71.0006 168.633 70.9658C168.761 70.931 168.86 70.8789 168.929 70.8093C169.004 70.7339 169.042 70.6238 169.042 70.4789C169.042 70.3513 169.01 70.247 168.947 70.1658C168.889 70.0847 168.813 70.0238 168.72 69.9832C168.633 69.9368 168.535 69.9079 168.425 69.8963C168.315 69.8789 168.21 69.8702 168.112 69.8702C167.833 69.8702 167.604 69.9281 167.425 70.0441C167.245 70.16 167.144 70.3397 167.12 70.5832H166.129C166.147 70.2934 166.216 70.0528 166.338 69.8615C166.46 69.6702 166.613 69.5166 166.799 69.4006C166.99 69.2847 167.204 69.2035 167.442 69.1571C167.68 69.1108 167.923 69.0876 168.173 69.0876C168.393 69.0876 168.61 69.1108 168.825 69.1571C169.039 69.2035 169.231 69.2789 169.399 69.3832C169.573 69.4876 169.712 69.6238 169.816 69.7919C169.92 69.9542 169.973 70.1542 169.973 70.3919V72.705ZM168.981 71.4528C168.831 71.5513 168.645 71.6122 168.425 71.6354C168.204 71.6528 167.984 71.6818 167.764 71.7223C167.66 71.7397 167.558 71.7658 167.46 71.8006C167.361 71.8296 167.274 71.8731 167.199 71.931C167.123 71.9832 167.062 72.0557 167.016 72.1484C166.976 72.2354 166.955 72.3426 166.955 72.4702C166.955 72.5803 166.987 72.6731 167.051 72.7484C167.115 72.8238 167.19 72.8847 167.277 72.931C167.37 72.9716 167.468 73.0006 167.573 73.018C167.683 73.0354 167.781 73.0441 167.868 73.0441C167.978 73.0441 168.097 73.0296 168.225 73.0006C168.352 72.9716 168.471 72.9223 168.581 72.8528C168.697 72.7832 168.793 72.6963 168.868 72.5919C168.944 72.4818 168.981 72.3484 168.981 72.1919V71.4528ZM170.587 69.2093H171.335V67.8615H172.326V69.2093H173.222V69.9484H172.326V72.3484C172.326 72.4528 172.329 72.5426 172.335 72.618C172.347 72.6934 172.367 72.7571 172.396 72.8093C172.431 72.8615 172.48 72.9021 172.544 72.931C172.607 72.9542 172.694 72.9658 172.804 72.9658C172.874 72.9658 172.944 72.9658 173.013 72.9658C173.083 72.96 173.152 72.9484 173.222 72.931V73.6963C173.112 73.7079 173.004 73.7194 172.9 73.731C172.796 73.7426 172.689 73.7484 172.578 73.7484C172.318 73.7484 172.106 73.7252 171.944 73.6789C171.787 73.6267 171.662 73.5542 171.57 73.4615C171.483 73.3629 171.422 73.2412 171.387 73.0963C171.358 72.9513 171.341 72.7861 171.335 72.6006V69.9484H170.587V69.2093ZM173.961 67.4963H174.952V68.4354H173.961V67.4963ZM173.961 69.2093H174.952V73.705H173.961V69.2093ZM178.093 73.8267C177.734 73.8267 177.412 73.7687 177.128 73.6528C176.85 73.531 176.612 73.3658 176.415 73.1571C176.224 72.9484 176.076 72.6992 175.972 72.4093C175.873 72.1194 175.824 71.8006 175.824 71.4528C175.824 71.1108 175.873 70.7948 175.972 70.505C176.076 70.2151 176.224 69.9658 176.415 69.7571C176.612 69.5484 176.85 69.3861 177.128 69.2702C177.412 69.1484 177.734 69.0876 178.093 69.0876C178.453 69.0876 178.772 69.1484 179.05 69.2702C179.334 69.3861 179.572 69.5484 179.763 69.7571C179.96 69.9658 180.108 70.2151 180.206 70.505C180.311 70.7948 180.363 71.1108 180.363 71.4528C180.363 71.8006 180.311 72.1194 180.206 72.4093C180.108 72.6992 179.96 72.9484 179.763 73.1571C179.572 73.3658 179.334 73.531 179.05 73.6528C178.772 73.7687 178.453 73.8267 178.093 73.8267ZM178.093 73.0441C178.314 73.0441 178.505 72.9977 178.667 72.905C178.83 72.8122 178.963 72.6905 179.067 72.5397C179.172 72.389 179.247 72.2209 179.293 72.0354C179.346 71.8441 179.372 71.6499 179.372 71.4528C179.372 71.2615 179.346 71.0702 179.293 70.8789C179.247 70.6876 179.172 70.5194 179.067 70.3745C178.963 70.2238 178.83 70.1021 178.667 70.0093C178.505 69.9166 178.314 69.8702 178.093 69.8702C177.873 69.8702 177.682 69.9166 177.519 70.0093C177.357 70.1021 177.224 70.2238 177.119 70.3745C177.015 70.5194 176.937 70.6876 176.885 70.8789C176.838 71.0702 176.815 71.2615 176.815 71.4528C176.815 71.6499 176.838 71.8441 176.885 72.0354C176.937 72.2209 177.015 72.389 177.119 72.5397C177.224 72.6905 177.357 72.8122 177.519 72.905C177.682 72.9977 177.873 73.0441 178.093 73.0441ZM181.187 69.2093H182.126V69.8702L182.144 69.8876C182.294 69.6383 182.491 69.4441 182.735 69.305C182.978 69.16 183.248 69.0876 183.544 69.0876C184.036 69.0876 184.425 69.2151 184.709 69.4702C184.993 69.7252 185.135 70.1079 185.135 70.618V73.705H184.144V70.8789C184.132 70.5252 184.057 70.2702 183.917 70.1137C183.778 69.9513 183.561 69.8702 183.265 69.8702C183.097 69.8702 182.946 69.9021 182.813 69.9658C182.68 70.0238 182.567 70.1079 182.474 70.218C182.381 70.3223 182.309 70.447 182.257 70.5919C182.204 70.7368 182.178 70.8905 182.178 71.0528V73.705H181.187V69.2093Z" fill="#2C5AB8"/>
</g>
<g clip-path="url(#clip4_589_9426)">
<rect x="23.6665" y="92.5652" width="101.994" height="24.8447" rx="12.4224" fill="#FAF8FC"/>
<path d="M42.9212 105.453H39.6603V108.714H38.7286V105.453H35.4678V104.522H38.7286V101.261H39.6603V104.522H42.9212V105.453Z" fill="#2C5AB8"/>
<path d="M50.6324 102.279H53.5976C54.2816 102.279 54.7947 102.427 55.1367 102.722C55.4787 103.018 55.6498 103.43 55.6498 103.957C55.6498 104.253 55.6063 104.499 55.5193 104.696C55.4324 104.888 55.3309 105.044 55.215 105.166C55.099 105.282 54.9831 105.366 54.8671 105.418C54.757 105.47 54.6758 105.505 54.6237 105.522V105.54C54.7164 105.551 54.815 105.58 54.9193 105.627C55.0295 105.673 55.1309 105.748 55.2237 105.853C55.3164 105.951 55.3918 106.082 55.4498 106.244C55.5135 106.406 55.5454 106.609 55.5454 106.853C55.5454 107.218 55.5715 107.551 55.6237 107.853C55.6816 108.148 55.7686 108.36 55.8845 108.488H54.7193C54.6382 108.354 54.5889 108.206 54.5715 108.044C54.5599 107.882 54.5541 107.725 54.5541 107.575C54.5541 107.29 54.5367 107.047 54.5019 106.844C54.4671 106.635 54.4034 106.464 54.3106 106.331C54.2179 106.192 54.0903 106.09 53.928 106.027C53.7715 105.963 53.5686 105.931 53.3193 105.931H51.7193V108.488H50.6324V102.279ZM51.7193 105.105H53.5019C53.8497 105.105 54.1135 105.024 54.2932 104.861C54.4729 104.693 54.5628 104.444 54.5628 104.114C54.5628 103.917 54.5338 103.757 54.4758 103.635C54.4179 103.508 54.3367 103.409 54.2324 103.34C54.1338 103.27 54.0179 103.224 53.8845 103.201C53.757 103.177 53.6237 103.166 53.4845 103.166H51.7193V105.105ZM59.7028 105.844C59.6912 105.688 59.6564 105.537 59.5985 105.392C59.5463 105.247 59.4709 105.122 59.3724 105.018C59.2796 104.908 59.1637 104.821 59.0245 104.757C58.8912 104.688 58.7405 104.653 58.5724 104.653C58.3985 104.653 58.239 104.685 58.0941 104.748C57.955 104.806 57.8332 104.89 57.7289 105.001C57.6303 105.105 57.5492 105.23 57.4854 105.375C57.4274 105.519 57.3956 105.676 57.3898 105.844H59.7028ZM57.3898 106.496C57.3898 106.67 57.413 106.838 57.4593 107.001C57.5115 107.163 57.5869 107.305 57.6854 107.427C57.784 107.548 57.9086 107.647 58.0593 107.722C58.2101 107.792 58.3898 107.827 58.5985 107.827C58.8883 107.827 59.1202 107.766 59.2941 107.644C59.4738 107.517 59.6072 107.328 59.6941 107.079H60.6332C60.5811 107.322 60.4912 107.54 60.3637 107.731C60.2361 107.922 60.0825 108.085 59.9028 108.218C59.7231 108.346 59.5202 108.441 59.2941 108.505C59.0738 108.575 58.8419 108.609 58.5985 108.609C58.2448 108.609 57.9318 108.551 57.6593 108.435C57.3869 108.319 57.155 108.157 56.9637 107.948C56.7782 107.74 56.6361 107.49 56.5376 107.201C56.4448 106.911 56.3985 106.592 56.3985 106.244C56.3985 105.925 56.4477 105.624 56.5463 105.34C56.6506 105.05 56.7956 104.798 56.9811 104.583C57.1724 104.363 57.4014 104.189 57.668 104.061C57.9347 103.934 58.2361 103.87 58.5724 103.87C58.926 103.87 59.2419 103.946 59.5202 104.096C59.8043 104.241 60.039 104.435 60.2245 104.679C60.4101 104.922 60.5434 105.203 60.6245 105.522C60.7115 105.835 60.7347 106.16 60.6941 106.496H57.3898ZM64.4825 105.496C64.4419 105.218 64.3289 105.009 64.1434 104.87C63.9637 104.725 63.7347 104.653 63.4564 104.653C63.3289 104.653 63.1926 104.676 63.0477 104.722C62.9028 104.763 62.7695 104.844 62.6477 104.966C62.526 105.082 62.4245 105.247 62.3434 105.461C62.2622 105.67 62.2216 105.946 62.2216 106.288C62.2216 106.473 62.2419 106.659 62.2825 106.844C62.3289 107.03 62.3984 107.195 62.4912 107.34C62.5897 107.485 62.7144 107.603 62.8651 107.696C63.0158 107.783 63.1984 107.827 63.4129 107.827C63.7028 107.827 63.9405 107.737 64.126 107.557C64.3173 107.377 64.4361 107.125 64.4825 106.801H65.4738C65.381 107.386 65.1579 107.835 64.8042 108.148C64.4564 108.456 63.9926 108.609 63.4129 108.609C63.0593 108.609 62.7463 108.551 62.4738 108.435C62.2071 108.314 61.981 108.151 61.7955 107.948C61.61 107.74 61.468 107.493 61.3695 107.209C61.2767 106.925 61.2303 106.618 61.2303 106.288C61.2303 105.951 61.2767 105.635 61.3695 105.34C61.4622 105.044 61.6013 104.789 61.7868 104.575C61.9723 104.354 62.2013 104.183 62.4738 104.061C62.7521 103.934 63.0767 103.87 63.4477 103.87C63.7086 103.87 63.955 103.905 64.1868 103.975C64.4245 104.038 64.6332 104.137 64.8129 104.27C64.9984 104.403 65.1492 104.572 65.2651 104.775C65.381 104.977 65.4506 105.218 65.4738 105.496H64.4825ZM69.3665 105.844C69.3549 105.688 69.3202 105.537 69.2622 105.392C69.21 105.247 69.1346 105.122 69.0361 105.018C68.9433 104.908 68.8274 104.821 68.6883 104.757C68.5549 104.688 68.4042 104.653 68.2361 104.653C68.0622 104.653 67.9028 104.685 67.7578 104.748C67.6187 104.806 67.497 104.89 67.3926 105.001C67.2941 105.105 67.2129 105.23 67.1491 105.375C67.0912 105.519 67.0593 105.676 67.0535 105.844H69.3665ZM67.0535 106.496C67.0535 106.67 67.0767 106.838 67.1231 107.001C67.1752 107.163 67.2506 107.305 67.3491 107.427C67.4477 107.548 67.5723 107.647 67.7231 107.722C67.8738 107.792 68.0535 107.827 68.2622 107.827C68.552 107.827 68.7839 107.766 68.9578 107.644C69.1375 107.517 69.2709 107.328 69.3578 107.079H70.297C70.2448 107.322 70.1549 107.54 70.0274 107.731C69.8999 107.922 69.7462 108.085 69.5665 108.218C69.3868 108.346 69.1839 108.441 68.9578 108.505C68.7375 108.575 68.5057 108.609 68.2622 108.609C67.9086 108.609 67.5955 108.551 67.3231 108.435C67.0506 108.319 66.8187 108.157 66.6274 107.948C66.4419 107.74 66.2999 107.49 66.2013 107.201C66.1086 106.911 66.0622 106.592 66.0622 106.244C66.0622 105.925 66.1115 105.624 66.21 105.34C66.3144 105.05 66.4593 104.798 66.6448 104.583C66.8361 104.363 67.0651 104.189 67.3317 104.061C67.5984 103.934 67.8999 103.87 68.2361 103.87C68.5897 103.87 68.9057 103.946 69.1839 104.096C69.468 104.241 69.7028 104.435 69.8883 104.679C70.0738 104.922 70.2071 105.203 70.2883 105.522C70.3752 105.835 70.3984 106.16 70.3578 106.496H67.0535ZM71.1114 103.992H72.0506V104.653L72.068 104.67C72.2187 104.421 72.4158 104.227 72.6593 104.088C72.9027 103.943 73.1723 103.87 73.468 103.87C73.9607 103.87 74.3491 103.998 74.6332 104.253C74.9172 104.508 75.0593 104.89 75.0593 105.401V108.488H74.068V105.661C74.0564 105.308 73.981 105.053 73.8419 104.896C73.7027 104.734 73.4853 104.653 73.1897 104.653C73.0216 104.653 72.8709 104.685 72.7375 104.748C72.6042 104.806 72.4911 104.89 72.3984 105.001C72.3056 105.105 72.2332 105.23 72.181 105.375C72.1288 105.519 72.1027 105.673 72.1027 105.835V108.488H71.1114V103.992ZM75.6525 103.992H76.4003V102.644H77.3916V103.992H78.2872V104.731H77.3916V107.131C77.3916 107.235 77.3945 107.325 77.4003 107.401C77.4119 107.476 77.4322 107.54 77.4612 107.592C77.4959 107.644 77.5452 107.685 77.609 107.714C77.6728 107.737 77.7597 107.748 77.8699 107.748C77.9394 107.748 78.009 107.748 78.0786 107.748C78.1481 107.743 78.2177 107.731 78.2872 107.714V108.479C78.1771 108.49 78.0699 108.502 77.9655 108.514C77.8612 108.525 77.7539 108.531 77.6438 108.531C77.3829 108.531 77.1713 108.508 77.009 108.461C76.8525 108.409 76.7278 108.337 76.6351 108.244C76.5481 108.146 76.4872 108.024 76.4525 107.879C76.4235 107.734 76.4061 107.569 76.4003 107.383V104.731H75.6525V103.992ZM83.2205 102.279H84.3771L86.7684 108.488H85.6031L85.0205 106.844H82.5423L81.9597 108.488H80.8379L83.2205 102.279ZM82.8379 106.018H84.7336L83.8031 103.348H83.7771L82.8379 106.018ZM90.2553 105.496C90.2147 105.218 90.1016 105.009 89.9161 104.87C89.7364 104.725 89.5074 104.653 89.2292 104.653C89.1016 104.653 88.9654 104.676 88.8205 104.722C88.6755 104.763 88.5422 104.844 88.4205 104.966C88.2987 105.082 88.1973 105.247 88.1161 105.461C88.035 105.67 87.9944 105.946 87.9944 106.288C87.9944 106.473 88.0147 106.659 88.0553 106.844C88.1016 107.03 88.1712 107.195 88.2639 107.34C88.3625 107.485 88.4871 107.603 88.6379 107.696C88.7886 107.783 88.9712 107.827 89.1857 107.827C89.4755 107.827 89.7132 107.737 89.8987 107.557C90.09 107.377 90.2089 107.125 90.2553 106.801H91.2466C91.1538 107.386 90.9306 107.835 90.577 108.148C90.2292 108.456 89.7654 108.609 89.1857 108.609C88.8321 108.609 88.519 108.551 88.2466 108.435C87.9799 108.314 87.7538 108.151 87.5683 107.948C87.3828 107.74 87.2408 107.493 87.1422 107.209C87.0495 106.925 87.0031 106.618 87.0031 106.288C87.0031 105.951 87.0495 105.635 87.1422 105.34C87.235 105.044 87.3741 104.789 87.5596 104.575C87.7451 104.354 87.9741 104.183 88.2466 104.061C88.5248 103.934 88.8495 103.87 89.2205 103.87C89.4813 103.87 89.7277 103.905 89.9596 103.975C90.1973 104.038 90.406 104.137 90.5857 104.27C90.7712 104.403 90.9219 104.572 91.0379 104.775C91.1538 104.977 91.2234 105.218 91.2466 105.496H90.2553ZM91.6002 103.992H92.348V102.644H93.3393V103.992H94.2349V104.731H93.3393V107.131C93.3393 107.235 93.3422 107.325 93.348 107.401C93.3596 107.476 93.3799 107.54 93.4089 107.592C93.4436 107.644 93.4929 107.685 93.5567 107.714C93.6204 107.737 93.7074 107.748 93.8176 107.748C93.8871 107.748 93.9567 107.748 94.0262 107.748C94.0958 107.743 94.1654 107.731 94.2349 107.714V108.479C94.1248 108.49 94.0176 108.502 93.9132 108.514C93.8089 108.525 93.7016 108.531 93.5915 108.531C93.3306 108.531 93.119 108.508 92.9567 108.461C92.8002 108.409 92.6755 108.337 92.5828 108.244C92.4958 108.146 92.4349 108.024 92.4002 107.879C92.3712 107.734 92.3538 107.569 92.348 107.383V104.731H91.6002V103.992ZM94.9741 102.279H95.9654V103.218H94.9741V102.279ZM94.9741 103.992H95.9654V108.488H94.9741V103.992ZM96.6021 103.992H97.6803L98.8195 107.444H98.8368L99.9325 103.992H100.959L99.3499 108.488H98.2368L96.6021 103.992ZM101.581 102.279H102.572V103.218H101.581V102.279ZM101.581 103.992H102.572V108.488H101.581V103.992ZM103.2 103.992H103.948V102.644H104.939V103.992H105.835V104.731H104.939V107.131C104.939 107.235 104.942 107.325 104.948 107.401C104.959 107.476 104.98 107.54 105.009 107.592C105.043 107.644 105.093 107.685 105.157 107.714C105.22 107.737 105.307 107.748 105.417 107.748C105.487 107.748 105.557 107.748 105.626 107.748C105.696 107.743 105.765 107.731 105.835 107.714V108.479C105.725 108.49 105.617 108.502 105.513 108.514C105.409 108.525 105.301 108.531 105.191 108.531C104.93 108.531 104.719 108.508 104.557 108.461C104.4 108.409 104.275 108.337 104.183 108.244C104.096 108.146 104.035 108.024 104 107.879C103.971 107.734 103.954 107.569 103.948 107.383V104.731H103.2V103.992ZM106.052 103.992H107.139L108.313 107.348H108.331L109.47 103.992H110.504L108.757 108.731C108.675 108.934 108.594 109.128 108.513 109.314C108.438 109.499 108.342 109.661 108.226 109.801C108.116 109.946 107.977 110.059 107.809 110.14C107.641 110.227 107.426 110.27 107.165 110.27C106.933 110.27 106.704 110.253 106.478 110.218V109.383C106.56 109.395 106.638 109.406 106.713 109.418C106.788 109.435 106.867 109.444 106.948 109.444C107.064 109.444 107.16 109.43 107.235 109.401C107.31 109.372 107.371 109.328 107.417 109.27C107.47 109.218 107.513 109.154 107.548 109.079C107.583 109.003 107.615 108.917 107.644 108.818L107.757 108.47L106.052 103.992Z" fill="#2C5AB8"/>
</g>
<g clip-path="url(#clip5_589_9426)">
<rect x="23.6665" y="127.348" width="106.994" height="24.8447" rx="12.4224" fill="#FAF8FC"/>
<path d="M42.9212 140.236H39.6603V143.497H38.7286V140.236H35.4678V139.304H38.7286V136.044H39.6603V139.304H42.9212V140.236Z" fill="#2C5AB8"/>
<path d="M52.2966 137.062H53.4531L55.8445 143.27H54.6792L54.0966 141.627H51.6184L51.0358 143.27H49.914L52.2966 137.062ZM51.914 140.801H53.8097L52.8792 138.131H52.8531L51.914 140.801ZM60.5313 143.27H59.5922V142.662H59.5748C59.4415 142.922 59.2473 143.111 58.9922 143.227C58.7371 143.337 58.4676 143.392 58.1835 143.392C57.8299 143.392 57.5197 143.331 57.2531 143.209C56.9922 143.082 56.7748 142.911 56.6009 142.696C56.427 142.482 56.2966 142.23 56.2096 141.94C56.1226 141.644 56.0792 141.328 56.0792 140.992C56.0792 140.586 56.1342 140.235 56.2444 139.94C56.3545 139.644 56.4995 139.401 56.6792 139.209C56.8647 139.018 57.0734 138.879 57.3053 138.792C57.5429 138.699 57.7835 138.653 58.027 138.653C58.1661 138.653 58.3082 138.667 58.4531 138.696C58.598 138.72 58.7371 138.76 58.8705 138.818C59.0038 138.876 59.1255 138.951 59.2357 139.044C59.3516 139.131 59.4473 139.235 59.5226 139.357H59.54V137.062H60.5313V143.27ZM57.0705 141.07C57.0705 141.262 57.0937 141.45 57.14 141.635C57.1922 141.821 57.2676 141.986 57.3661 142.131C57.4705 142.276 57.6009 142.392 57.7574 142.479C57.914 142.566 58.0995 142.609 58.314 142.609C58.5342 142.609 58.7226 142.563 58.8792 142.47C59.0415 142.378 59.1719 142.256 59.2705 142.105C59.3748 141.954 59.4502 141.786 59.4966 141.601C59.5487 141.409 59.5748 141.215 59.5748 141.018C59.5748 140.52 59.4618 140.131 59.2357 139.853C59.0154 139.575 58.714 139.435 58.3313 139.435C58.0995 139.435 57.9024 139.485 57.74 139.583C57.5835 139.676 57.4531 139.801 57.3487 139.957C57.2502 140.108 57.1777 140.282 57.1313 140.479C57.0908 140.67 57.0705 140.867 57.0705 141.07ZM61.169 138.775H62.2472L63.3864 142.227H63.4038L64.4994 138.775H65.5255L63.9168 143.27H62.8038L61.169 138.775ZM69.2086 140.627C69.197 140.47 69.1622 140.32 69.1042 140.175C69.0521 140.03 68.9767 139.905 68.8781 139.801C68.7854 139.691 68.6695 139.604 68.5303 139.54C68.397 139.47 68.2463 139.435 68.0781 139.435C67.9042 139.435 67.7448 139.467 67.5999 139.531C67.4608 139.589 67.339 139.673 67.2347 139.783C67.1361 139.888 67.055 140.012 66.9912 140.157C66.9332 140.302 66.9013 140.459 66.8955 140.627H69.2086ZM66.8955 141.279C66.8955 141.453 66.9187 141.621 66.9651 141.783C67.0173 141.946 67.0926 142.088 67.1912 142.209C67.2897 142.331 67.4144 142.43 67.5651 142.505C67.7158 142.575 67.8955 142.609 68.1042 142.609C68.3941 142.609 68.626 142.549 68.7999 142.427C68.9796 142.299 69.1129 142.111 69.1999 141.862H70.139C70.0868 142.105 69.997 142.322 69.8695 142.514C69.7419 142.705 69.5883 142.867 69.4086 143.001C69.2289 143.128 69.026 143.224 68.7999 143.288C68.5796 143.357 68.3477 143.392 68.1042 143.392C67.7506 143.392 67.4376 143.334 67.1651 143.218C66.8926 143.102 66.6608 142.94 66.4695 142.731C66.2839 142.522 66.1419 142.273 66.0434 141.983C65.9506 141.693 65.9042 141.375 65.9042 141.027C65.9042 140.708 65.9535 140.406 66.0521 140.122C66.1564 139.833 66.3013 139.58 66.4868 139.366C66.6781 139.146 66.9071 138.972 67.1738 138.844C67.4405 138.717 67.7419 138.653 68.0781 138.653C68.4318 138.653 68.7477 138.728 69.026 138.879C69.31 139.024 69.5448 139.218 69.7303 139.462C69.9158 139.705 70.0492 139.986 70.1303 140.305C70.2173 140.618 70.2405 140.943 70.1999 141.279H66.8955ZM70.9535 138.775H71.8839V139.644H71.9013C71.9303 139.522 71.9854 139.404 72.0665 139.288C72.1535 139.172 72.2549 139.067 72.3709 138.975C72.4926 138.876 72.626 138.798 72.7709 138.74C72.9158 138.682 73.0636 138.653 73.2144 138.653C73.3303 138.653 73.4086 138.656 73.4491 138.662C73.4955 138.667 73.5419 138.673 73.5883 138.679V139.635C73.5187 139.624 73.4462 139.615 73.3709 139.609C73.3013 139.598 73.2317 139.592 73.1622 139.592C72.9941 139.592 72.8346 139.627 72.6839 139.696C72.539 139.76 72.4115 139.859 72.3013 139.992C72.1912 140.12 72.1042 140.279 72.0404 140.47C71.9767 140.662 71.9448 140.882 71.9448 141.131V143.27H70.9535V138.775ZM73.5584 138.775H74.3062V137.427H75.2975V138.775H76.1932V139.514H75.2975V141.914C75.2975 142.018 75.3004 142.108 75.3062 142.183C75.3178 142.259 75.3381 142.322 75.3671 142.375C75.4019 142.427 75.4511 142.467 75.5149 142.496C75.5787 142.52 75.6656 142.531 75.7758 142.531C75.8453 142.531 75.9149 142.531 75.9845 142.531C76.054 142.525 76.1236 142.514 76.1932 142.496V143.262C76.083 143.273 75.9758 143.285 75.8714 143.296C75.7671 143.308 75.6598 143.314 75.5497 143.314C75.2888 143.314 75.0772 143.291 74.9149 143.244C74.7584 143.192 74.6337 143.12 74.541 143.027C74.454 142.928 74.3932 142.806 74.3584 142.662C74.3294 142.517 74.312 142.351 74.3062 142.166V139.514H73.5584V138.775ZM76.9324 137.062H77.9237V138.001H76.9324V137.062ZM76.9324 138.775H77.9237V143.27H76.9324V138.775ZM79.7516 141.827C79.7806 142.117 79.8907 142.32 80.082 142.435C80.2733 142.551 80.5023 142.609 80.769 142.609C80.8617 142.609 80.9661 142.604 81.082 142.592C81.2038 142.575 81.3168 142.546 81.4212 142.505C81.5255 142.464 81.6096 142.406 81.6733 142.331C81.7429 142.25 81.7748 142.146 81.769 142.018C81.7632 141.891 81.7168 141.786 81.6298 141.705C81.5429 141.624 81.4298 141.56 81.2907 141.514C81.1574 141.462 81.0038 141.418 80.8298 141.383C80.6559 141.349 80.4791 141.311 80.2994 141.27C80.1139 141.23 79.9342 141.18 79.7603 141.122C79.5922 141.064 79.4385 140.986 79.2994 140.888C79.1661 140.789 79.0588 140.664 78.9777 140.514C78.8965 140.357 78.8559 140.166 78.8559 139.94C78.8559 139.696 78.9139 139.493 79.0298 139.331C79.1516 139.163 79.3023 139.03 79.482 138.931C79.6675 138.827 79.8704 138.754 80.0907 138.714C80.3168 138.673 80.5313 138.653 80.7342 138.653C80.9661 138.653 81.1864 138.679 81.3951 138.731C81.6096 138.778 81.8009 138.856 81.969 138.966C82.1429 139.076 82.2849 139.221 82.3951 139.401C82.511 139.575 82.5835 139.786 82.6125 140.035H81.5777C81.5313 139.798 81.4212 139.638 81.2472 139.557C81.0791 139.476 80.8849 139.435 80.6646 139.435C80.5951 139.435 80.511 139.441 80.4125 139.453C80.3197 139.464 80.2298 139.488 80.1429 139.522C80.0617 139.551 79.9922 139.598 79.9342 139.662C79.8762 139.72 79.8472 139.798 79.8472 139.896C79.8472 140.018 79.8878 140.117 79.969 140.192C80.0559 140.267 80.1661 140.331 80.2994 140.383C80.4385 140.43 80.5951 140.47 80.769 140.505C80.9429 140.54 81.1226 140.578 81.3081 140.618C81.4878 140.659 81.6646 140.708 81.8385 140.766C82.0125 140.824 82.1661 140.902 82.2994 141.001C82.4385 141.099 82.5487 141.224 82.6298 141.375C82.7168 141.525 82.7603 141.711 82.7603 141.931C82.7603 142.198 82.6994 142.424 82.5777 142.609C82.4559 142.795 82.2965 142.946 82.0994 143.062C81.9081 143.178 81.6936 143.262 81.4559 143.314C81.2183 143.366 80.9835 143.392 80.7516 143.392C80.4675 143.392 80.2038 143.36 79.9603 143.296C79.7226 143.233 79.5139 143.137 79.3342 143.009C79.1603 142.876 79.0212 142.714 78.9168 142.522C78.8183 142.325 78.7661 142.093 78.7603 141.827H79.7516ZM83.539 137.062H84.5303V138.001H83.539V137.062ZM83.539 138.775H84.5303V143.27H83.539V138.775ZM85.6104 138.775H86.5495V139.435L86.5669 139.453C86.7177 139.204 86.9148 139.009 87.1582 138.87C87.4017 138.725 87.6713 138.653 87.9669 138.653C88.4597 138.653 88.8481 138.78 89.1322 139.035C89.4162 139.291 89.5582 139.673 89.5582 140.183V143.27H88.5669V140.444C88.5553 140.091 88.48 139.835 88.3409 139.679C88.2017 139.517 87.9843 139.435 87.6887 139.435C87.5206 139.435 87.3698 139.467 87.2365 139.531C87.1032 139.589 86.9901 139.673 86.8974 139.783C86.8046 139.888 86.7322 140.012 86.68 140.157C86.6278 140.302 86.6017 140.456 86.6017 140.618V143.27H85.6104V138.775ZM94.7601 143.035C94.7601 143.714 94.5688 144.218 94.1862 144.549C93.8094 144.885 93.2645 145.053 92.5514 145.053C92.3254 145.053 92.0964 145.03 91.8645 144.983C91.6384 144.937 91.4297 144.859 91.2384 144.749C91.0529 144.638 90.8964 144.493 90.7688 144.314C90.6413 144.134 90.5659 143.914 90.5428 143.653H91.5341C91.563 143.792 91.6123 143.905 91.6819 143.992C91.7514 144.079 91.8326 144.146 91.9254 144.192C92.0239 144.244 92.1312 144.276 92.2471 144.288C92.363 144.305 92.4848 144.314 92.6123 144.314C93.0123 144.314 93.3051 144.215 93.4906 144.018C93.6761 143.821 93.7688 143.537 93.7688 143.166V142.479H93.7514C93.6123 142.728 93.421 142.922 93.1775 143.062C92.9399 143.201 92.6819 143.27 92.4036 143.27C92.0442 143.27 91.737 143.209 91.4819 143.088C91.2326 142.96 91.0239 142.789 90.8558 142.575C90.6935 142.354 90.5746 142.102 90.4993 141.818C90.4239 141.534 90.3862 141.23 90.3862 140.905C90.3862 140.604 90.4326 140.317 90.5254 140.044C90.6181 139.772 90.7514 139.534 90.9254 139.331C91.0993 139.122 91.3109 138.957 91.5601 138.835C91.8152 138.714 92.1022 138.653 92.421 138.653C92.7051 138.653 92.9659 138.714 93.2036 138.835C93.4413 138.951 93.6239 139.137 93.7514 139.392H93.7688V138.775H94.7601V143.035ZM92.5601 142.488C92.7804 142.488 92.9659 142.444 93.1167 142.357C93.2732 142.264 93.3978 142.146 93.4906 142.001C93.5891 141.85 93.6587 141.682 93.6993 141.496C93.7457 141.305 93.7688 141.114 93.7688 140.922C93.7688 140.731 93.7457 140.546 93.6993 140.366C93.6529 140.186 93.5804 140.027 93.4819 139.888C93.3891 139.749 93.2645 139.638 93.108 139.557C92.9572 139.476 92.7746 139.435 92.5601 139.435C92.3399 139.435 92.1543 139.482 92.0036 139.575C91.8529 139.667 91.7312 139.789 91.6384 139.94C91.5457 140.085 91.479 140.253 91.4384 140.444C91.3978 140.63 91.3775 140.815 91.3775 141.001C91.3775 141.186 91.4007 141.369 91.4471 141.549C91.4935 141.722 91.563 141.879 91.6558 142.018C91.7543 142.157 91.8761 142.27 92.021 142.357C92.1717 142.444 92.3514 142.488 92.5601 142.488ZM98.3001 137.062H99.8305L101.544 141.922H101.561L103.231 137.062H104.744V143.27H103.709V138.479H103.691L101.97 143.27H101.074L99.3523 138.479H99.3349V143.27H98.3001V137.062ZM109.671 142.27C109.671 142.392 109.686 142.479 109.715 142.531C109.749 142.583 109.813 142.609 109.906 142.609C109.935 142.609 109.97 142.609 110.01 142.609C110.051 142.609 110.097 142.604 110.149 142.592V143.279C110.115 143.291 110.068 143.302 110.01 143.314C109.958 143.331 109.903 143.346 109.845 143.357C109.787 143.369 109.729 143.378 109.671 143.383C109.613 143.389 109.564 143.392 109.523 143.392C109.32 143.392 109.152 143.351 109.019 143.27C108.886 143.189 108.799 143.047 108.758 142.844C108.561 143.035 108.318 143.175 108.028 143.262C107.744 143.349 107.468 143.392 107.202 143.392C106.999 143.392 106.804 143.363 106.619 143.305C106.433 143.253 106.268 143.175 106.123 143.07C105.984 142.96 105.871 142.824 105.784 142.662C105.703 142.493 105.662 142.299 105.662 142.079C105.662 141.801 105.712 141.575 105.81 141.401C105.915 141.227 106.048 141.091 106.21 140.992C106.378 140.893 106.564 140.824 106.767 140.783C106.975 140.737 107.184 140.702 107.393 140.679C107.573 140.644 107.744 140.621 107.906 140.609C108.068 140.592 108.21 140.566 108.332 140.531C108.46 140.496 108.558 140.444 108.628 140.375C108.703 140.299 108.741 140.189 108.741 140.044C108.741 139.917 108.709 139.812 108.645 139.731C108.587 139.65 108.512 139.589 108.419 139.549C108.332 139.502 108.233 139.473 108.123 139.462C108.013 139.444 107.909 139.435 107.81 139.435C107.532 139.435 107.303 139.493 107.123 139.609C106.944 139.725 106.842 139.905 106.819 140.149H105.828C105.845 139.859 105.915 139.618 106.036 139.427C106.158 139.235 106.312 139.082 106.497 138.966C106.689 138.85 106.903 138.769 107.141 138.722C107.378 138.676 107.622 138.653 107.871 138.653C108.091 138.653 108.309 138.676 108.523 138.722C108.738 138.769 108.929 138.844 109.097 138.949C109.271 139.053 109.41 139.189 109.515 139.357C109.619 139.52 109.671 139.72 109.671 139.957V142.27ZM108.68 141.018C108.529 141.117 108.344 141.178 108.123 141.201C107.903 141.218 107.683 141.247 107.462 141.288C107.358 141.305 107.257 141.331 107.158 141.366C107.06 141.395 106.973 141.438 106.897 141.496C106.822 141.549 106.761 141.621 106.715 141.714C106.674 141.801 106.654 141.908 106.654 142.035C106.654 142.146 106.686 142.238 106.749 142.314C106.813 142.389 106.889 142.45 106.975 142.496C107.068 142.537 107.167 142.566 107.271 142.583C107.381 142.601 107.48 142.609 107.567 142.609C107.677 142.609 107.796 142.595 107.923 142.566C108.051 142.537 108.17 142.488 108.28 142.418C108.396 142.349 108.491 142.262 108.567 142.157C108.642 142.047 108.68 141.914 108.68 141.757V141.018ZM110.764 138.775H111.703V139.383H111.72C111.86 139.122 112.054 138.937 112.303 138.827C112.552 138.711 112.822 138.653 113.112 138.653C113.465 138.653 113.773 138.717 114.033 138.844C114.3 138.966 114.52 139.137 114.694 139.357C114.868 139.572 114.999 139.824 115.086 140.114C115.173 140.404 115.216 140.714 115.216 141.044C115.216 141.346 115.175 141.638 115.094 141.922C115.019 142.206 114.9 142.459 114.738 142.679C114.581 142.893 114.381 143.067 114.138 143.201C113.894 143.328 113.607 143.392 113.277 143.392C113.132 143.392 112.987 143.378 112.842 143.349C112.697 143.325 112.558 143.285 112.425 143.227C112.291 143.169 112.167 143.096 112.051 143.009C111.941 142.917 111.848 142.809 111.773 142.688H111.755V144.931H110.764V138.775ZM114.225 141.027C114.225 140.824 114.199 140.627 114.146 140.435C114.094 140.244 114.016 140.076 113.912 139.931C113.807 139.78 113.677 139.662 113.52 139.575C113.364 139.482 113.184 139.435 112.981 139.435C112.564 139.435 112.248 139.58 112.033 139.87C111.825 140.16 111.72 140.546 111.72 141.027C111.72 141.253 111.746 141.464 111.799 141.662C111.857 141.853 111.941 142.018 112.051 142.157C112.161 142.296 112.291 142.406 112.442 142.488C112.599 142.569 112.778 142.609 112.981 142.609C113.207 142.609 113.399 142.563 113.555 142.47C113.712 142.378 113.839 142.259 113.938 142.114C114.042 141.963 114.115 141.795 114.155 141.609C114.202 141.418 114.225 141.224 114.225 141.027Z" fill="#2C5AB8"/>
</g>
</g>
<defs>
<filter id="filter0_f_589_9426" x="22.6665" y="-167" width="445" height="441" filterUnits="userSpaceOnUse" color-interpolation-filters="sRGB">
<feFlood flood-opacity="0" result="BackgroundImageFix"/>
<feBlend mode="normal" in="SourceGraphic" in2="BackgroundImageFix" result="shape"/>
<feGaussianBlur stdDeviation="50" result="effect1_foregroundBlur_589_9426"/>
</filter>
<filter id="filter1_f_589_9426" x="-148.333" y="-60" width="472" height="467" filterUnits="userSpaceOnUse" color-interpolation-filters="sRGB">
<feFlood flood-opacity="0" result="BackgroundImageFix"/>
<feBlend mode="normal" in="SourceGraphic" in2="BackgroundImageFix" result="shape"/>
<feGaussianBlur stdDeviation="50" result="effect1_foregroundBlur_589_9426"/>
</filter>
<clipPath id="clip0_589_9426">
<rect width="325.333" height="175" fill="white"/>
</clipPath>
<clipPath id="clip1_589_9426">
<rect width="325.33" height="175" fill="white"/>
</clipPath>
<clipPath id="clip2_589_9426">
<rect x="23.6665" y="23" width="199.994" height="24.8447" rx="12.4224" fill="white"/>
</clipPath>
<clipPath id="clip3_589_9426">
<rect x="23.6665" y="57.7826" width="176.994" height="24.8447" rx="12.4224" fill="white"/>
</clipPath>
<clipPath id="clip4_589_9426">
<rect x="23.6665" y="92.5652" width="101.994" height="24.8447" rx="12.4224" fill="white"/>
</clipPath>
<clipPath id="clip5_589_9426">
<rect x="23.6665" y="127.348" width="106.994" height="24.8447" rx="12.4224" fill="white"/>
</clipPath>
</defs>
</svg>
