<svg width="326" height="175" viewBox="0 0 326 175" fill="none" xmlns="http://www.w3.org/2000/svg">
<g clip-path="url(#clip0_589_9447)">
<rect width="325.33" height="175" fill="#EAE5FF"/>
<g filter="url(#filter0_f_589_9447)">
<ellipse cx="115" cy="154.5" rx="141" ry="138.5" fill="#C0A8F0"/>
</g>
<path d="M63 53.3333C63 50.3878 65.3878 48 68.3333 48H257.667C260.612 48 263 50.3878 263 53.3333V175.333H63V53.3333Z" fill="white"/>
<g clip-path="url(#clip1_589_9447)">
<path d="M163 93.3334C128.009 93.3334 114.847 146.641 87.3506 146.667L238.669 146.595L238.669 72.0001C229 80.3334 198 93.3334 163 93.3334Z" fill="url(#paint0_linear_589_9447)"/>
<circle cx="163" cy="93.3334" r="2.66667" fill="#2C5AB8"/>
<circle cx="239" cy="74" r="2.66667" fill="#2C5AB8"/>
</g>
<line x1="87" y1="146" x2="239" y2="146" stroke="#E1E2EC" stroke-width="0.666667"/>
<path d="M80.0072 153.955H81.0472L82.8472 158.755L84.6552 153.955H85.6952V159.667H84.9752V154.915H84.9592L83.1752 159.667H82.5272L80.7432 154.915H80.7272V159.667H80.0072V153.955ZM90.5119 159.651C90.3946 159.72 90.2319 159.755 90.0239 159.755C89.8479 159.755 89.7066 159.707 89.5999 159.611C89.4986 159.509 89.4479 159.347 89.4479 159.123C89.2613 159.347 89.0426 159.509 88.7919 159.611C88.5466 159.707 88.2799 159.755 87.9919 159.755C87.8053 159.755 87.6266 159.733 87.4559 159.691C87.2906 159.648 87.1466 159.581 87.0239 159.491C86.9013 159.4 86.8026 159.283 86.7279 159.139C86.6586 158.989 86.6239 158.811 86.6239 158.603C86.6239 158.368 86.6639 158.176 86.7439 158.027C86.8239 157.877 86.9279 157.757 87.0559 157.667C87.1893 157.571 87.3386 157.499 87.5039 157.451C87.6746 157.403 87.8479 157.363 88.0239 157.331C88.2106 157.293 88.3866 157.267 88.5519 157.251C88.7226 157.229 88.8719 157.203 88.9999 157.171C89.1279 157.133 89.2293 157.083 89.3039 157.019C89.3786 156.949 89.4159 156.851 89.4159 156.723C89.4159 156.573 89.3866 156.453 89.3279 156.363C89.2746 156.272 89.2026 156.203 89.1119 156.155C89.0266 156.107 88.9279 156.075 88.8159 156.059C88.7093 156.043 88.6026 156.035 88.4959 156.035C88.2079 156.035 87.9679 156.091 87.7759 156.203C87.5839 156.309 87.4799 156.515 87.4639 156.819H86.7839C86.7946 156.563 86.8479 156.347 86.9439 156.171C87.0399 155.995 87.1679 155.853 87.3279 155.747C87.4879 155.635 87.6693 155.555 87.8719 155.507C88.0799 155.459 88.3013 155.435 88.5359 155.435C88.7226 155.435 88.9066 155.448 89.0879 155.475C89.2746 155.501 89.4426 155.557 89.5919 155.643C89.7413 155.723 89.8613 155.837 89.9519 155.987C90.0426 156.136 90.0879 156.331 90.0879 156.571V158.699C90.0879 158.859 90.0959 158.976 90.1119 159.051C90.1333 159.125 90.1973 159.163 90.3039 159.163C90.3626 159.163 90.4319 159.149 90.5119 159.123V159.651ZM89.4079 157.531C89.3226 157.595 89.2106 157.643 89.0719 157.675C88.9333 157.701 88.7866 157.725 88.6319 157.747C88.4826 157.763 88.3306 157.784 88.1759 157.811C88.0213 157.832 87.8826 157.869 87.7599 157.923C87.6373 157.976 87.5359 158.053 87.4559 158.155C87.3813 158.251 87.3439 158.384 87.3439 158.555C87.3439 158.667 87.3653 158.763 87.4079 158.843C87.4559 158.917 87.5146 158.979 87.5839 159.027C87.6586 159.075 87.7439 159.109 87.8399 159.131C87.9359 159.152 88.0373 159.163 88.1439 159.163C88.3679 159.163 88.5599 159.133 88.7199 159.075C88.8799 159.011 89.0106 158.933 89.1119 158.843C89.2133 158.747 89.2879 158.645 89.3359 158.539C89.3839 158.427 89.4079 158.323 89.4079 158.227V157.531ZM92.7688 160.219C92.6888 160.421 92.6088 160.592 92.5288 160.731C92.4541 160.869 92.3688 160.981 92.2728 161.067C92.1821 161.157 92.0781 161.221 91.9608 161.259C91.8488 161.301 91.7181 161.323 91.5688 161.323C91.4888 161.323 91.4088 161.317 91.3288 161.307C91.2488 161.296 91.1715 161.277 91.0968 161.251V160.627C91.1555 160.653 91.2221 160.675 91.2968 160.691C91.3768 160.712 91.4435 160.723 91.4968 160.723C91.6355 160.723 91.7501 160.688 91.8408 160.619C91.9368 160.555 92.0088 160.461 92.0568 160.339L92.3368 159.643L90.6968 155.531H91.4648L92.6728 158.915H92.6888L93.8488 155.531H94.5688L92.7688 160.219Z" fill="#585E71"/>
<path d="M160.008 158.243C160.008 158.435 159.979 158.624 159.92 158.811C159.867 158.997 159.774 159.165 159.64 159.315C159.512 159.459 159.339 159.576 159.12 159.667C158.907 159.752 158.64 159.795 158.32 159.795C157.787 159.795 157.376 159.656 157.088 159.379C156.8 159.096 156.656 158.683 156.656 158.139V157.787H157.416V158.027C157.416 158.192 157.43 158.344 157.456 158.483C157.483 158.621 157.528 158.741 157.592 158.843C157.662 158.944 157.755 159.024 157.872 159.083C157.995 159.136 158.15 159.163 158.336 159.163C158.683 159.163 158.92 159.069 159.048 158.883C159.182 158.696 159.248 158.445 159.248 158.131V153.955H160.008V158.243ZM164.565 159.667H163.925V159.011H163.909C163.765 159.267 163.581 159.456 163.357 159.579C163.133 159.696 162.869 159.755 162.565 159.755C162.293 159.755 162.066 159.72 161.885 159.651C161.704 159.576 161.557 159.472 161.445 159.339C161.333 159.205 161.253 159.048 161.205 158.867C161.162 158.68 161.141 158.475 161.141 158.251V155.531H161.821V158.331C161.821 158.587 161.896 158.789 162.045 158.939C162.194 159.088 162.4 159.163 162.661 159.163C162.869 159.163 163.048 159.131 163.197 159.067C163.352 159.003 163.48 158.912 163.581 158.795C163.682 158.677 163.757 158.541 163.805 158.387C163.858 158.227 163.885 158.053 163.885 157.867V155.531H164.565V159.667ZM165.586 155.531H166.226V156.187H166.242C166.525 155.685 166.973 155.435 167.586 155.435C167.858 155.435 168.085 155.472 168.266 155.547C168.448 155.621 168.594 155.725 168.706 155.859C168.818 155.992 168.896 156.152 168.938 156.339C168.986 156.52 169.01 156.723 169.01 156.947V159.667H168.33V156.867C168.33 156.611 168.256 156.408 168.106 156.259C167.957 156.109 167.752 156.035 167.49 156.035C167.282 156.035 167.101 156.067 166.946 156.131C166.797 156.195 166.672 156.285 166.57 156.403C166.469 156.52 166.392 156.659 166.338 156.819C166.29 156.973 166.266 157.144 166.266 157.331V159.667H165.586V155.531Z" fill="#585E71"/>
<path d="M237.344 158.243C237.344 158.435 237.315 158.624 237.256 158.811C237.203 158.997 237.11 159.165 236.976 159.315C236.848 159.459 236.675 159.576 236.456 159.667C236.243 159.752 235.976 159.795 235.656 159.795C235.123 159.795 234.712 159.656 234.424 159.379C234.136 159.096 233.992 158.683 233.992 158.139V157.787H234.752V158.027C234.752 158.192 234.766 158.344 234.792 158.483C234.819 158.621 234.864 158.741 234.928 158.843C234.998 158.944 235.091 159.024 235.208 159.083C235.331 159.136 235.486 159.163 235.672 159.163C236.019 159.163 236.256 159.069 236.384 158.883C236.518 158.696 236.584 158.445 236.584 158.131V153.955H237.344V158.243ZM241.901 159.667H241.261V159.011H241.245C241.101 159.267 240.917 159.456 240.693 159.579C240.469 159.696 240.205 159.755 239.901 159.755C239.629 159.755 239.402 159.72 239.221 159.651C239.04 159.576 238.893 159.472 238.781 159.339C238.669 159.205 238.589 159.048 238.541 158.867C238.498 158.68 238.477 158.475 238.477 158.251V155.531H239.157V158.331C239.157 158.587 239.232 158.789 239.381 158.939C239.53 159.088 239.736 159.163 239.997 159.163C240.205 159.163 240.384 159.131 240.533 159.067C240.688 159.003 240.816 158.912 240.917 158.795C241.018 158.677 241.093 158.541 241.141 158.387C241.194 158.227 241.221 158.053 241.221 157.867V155.531H241.901V159.667ZM242.962 153.955H243.642V159.667H242.962V153.955Z" fill="#585E71"/>
<circle cx="87.0002" cy="146.333" r="2.66667" fill="#2C5AB8"/>
<g style="mix-blend-mode:darken" opacity="0.4" filter="url(#filter1_f_589_9447)">
<ellipse cx="163" cy="228.5" rx="116" ry="70.5" fill="#002C72"/>
</g>
</g>
<defs>
<filter id="filter0_f_589_9447" x="-126" y="-84" width="482" height="477" filterUnits="userSpaceOnUse" color-interpolation-filters="sRGB">
<feFlood flood-opacity="0" result="BackgroundImageFix"/>
<feBlend mode="normal" in="SourceGraphic" in2="BackgroundImageFix" result="shape"/>
<feGaussianBlur stdDeviation="50" result="effect1_foregroundBlur_589_9447"/>
</filter>
<filter id="filter1_f_589_9447" x="-53" y="58" width="432" height="341" filterUnits="userSpaceOnUse" color-interpolation-filters="sRGB">
<feFlood flood-opacity="0" result="BackgroundImageFix"/>
<feBlend mode="normal" in="SourceGraphic" in2="BackgroundImageFix" result="shape"/>
<feGaussianBlur stdDeviation="50" result="effect1_foregroundBlur_589_9447"/>
</filter>
<linearGradient id="paint0_linear_589_9447" x1="163" y1="113.964" x2="163" y2="146.667" gradientUnits="userSpaceOnUse">
<stop stop-color="#DAE2FF" stop-opacity="0.6"/>
<stop offset="1" stop-color="white"/>
</linearGradient>
<clipPath id="clip0_589_9447">
<rect width="325.333" height="175" fill="white"/>
</clipPath>
<clipPath id="clip1_589_9447">
<rect width="168" height="85.6667" fill="white" transform="translate(79 60.6667)"/>
</clipPath>
</defs>
</svg>
