<svg width="140" height="32" viewBox="0 0 140 32" fill="none" xmlns="http://www.w3.org/2000/svg">
<path fill-rule="evenodd" clip-rule="evenodd" d="M10.7846 16.0061L15.4969 11.2334L13.4687 9.1792L8.75645 13.9519L4.04424 9.1792L8.75645 4.4065C12.2785 7.97372 15.8005 11.541 19.3225 15.1082C22.8445 11.541 26.3665 7.97372 29.8885 4.4065L34.6007 9.1792L29.8885 13.9519L25.1763 9.1792L23.1481 11.2334L27.8603 16.0061L23.1481 20.7788L25.1763 22.8331L29.8885 18.0604L34.6007 22.8331L29.8885 27.6058C27.6417 25.3301 25.3949 23.0545 23.1603 20.7911L19.3346 24.6659L15.509 20.7911L8.78074 27.6058L4.06853 22.8331L8.78074 18.0604L13.493 22.8331L15.5211 20.7788L10.8089 16.0061H10.7846ZM19.3225 11.012C15.8005 7.44479 12.2785 3.87756 8.75645 0.310333L0 9.1792L6.72826 15.9938L0 22.8208L8.75645 31.6896L15.4847 24.875L19.3103 28.7498L23.136 24.875L29.8642 31.6896L38.6207 22.8208L31.8924 16.0061L38.6207 9.1915L29.8764 0.310333C26.3544 3.87756 22.8324 7.44479 19.3103 11.012H19.3225Z" fill="#2C5AB8"/>
<g clip-path="url(#clip0_653_333)">
<path d="M60.2252 24.2853C59.8162 24.3939 59.3885 24.4483 58.9484 24.4483C57.7832 24.4483 56.841 24.1162 56.122 23.4582C55.403 22.8003 55.0436 21.937 55.0436 20.8806V15.1035H53.1035V12.4112H55.0436V9.07294H58.0435V12.4112H60.5476V15.1035H58.0435V20.8806C58.0435 21.11 58.1241 21.2971 58.2914 21.442C58.4588 21.5869 58.6757 21.6593 58.9422 21.6593C59.1468 21.6593 59.3203 21.6231 59.4629 21.5446L60.219 24.2853H60.2252Z" fill="#2C5AB8"/>
<path d="M62.7528 13.866C63.8189 12.7311 65.2135 12.1637 66.949 12.1637C68.6845 12.1637 70.0853 12.7311 71.1576 13.866C72.2298 15.0009 72.7629 16.4799 72.7629 18.309C72.7629 18.5565 72.7443 18.8221 72.7133 19.1119H64.3209C64.4449 19.9087 64.7424 20.5365 65.2073 20.9893C65.6721 21.442 66.2486 21.6654 66.9428 21.6654C67.5378 21.6654 68.0832 21.5326 68.5605 21.273C69.0378 21.0134 69.4097 20.6271 69.6576 20.12L72.3042 21.6171C71.7712 22.5226 71.0336 23.2228 70.1039 23.7118C69.1741 24.2008 68.1204 24.4483 66.9366 24.4483C65.2011 24.4483 63.8065 23.8808 62.7404 22.7459C61.6743 21.611 61.1475 20.1321 61.1475 18.303C61.1475 16.4739 61.6805 14.9949 62.7404 13.86L62.7528 13.866ZM68.5295 15.4778C68.0894 15.1277 67.5626 14.9466 66.949 14.9466C66.3354 14.9466 65.8085 15.1216 65.3746 15.4778C64.9408 15.834 64.637 16.3169 64.4635 16.9266H69.453C69.2795 16.3109 68.9696 15.8279 68.5295 15.4778Z" fill="#2C5AB8"/>
<path d="M83.1745 23.6876L80.2676 24.4482C80.2056 24.2007 80.1498 23.9412 80.1002 23.6635C79.2635 24.1826 78.4143 24.4482 77.5466 24.4482C76.3007 24.4482 75.2966 24.1042 74.5219 23.422C73.7471 22.7399 73.3628 21.768 73.3628 20.5124C73.3628 19.4559 73.7719 18.5867 74.59 17.9106C75.4082 17.2345 76.5983 16.8964 78.1602 16.8964C78.6932 16.8964 79.2635 16.9387 79.8647 17.0353V16.2324C79.8647 15.834 79.7345 15.5019 79.4742 15.2303C79.2139 14.9586 78.811 14.8258 78.2594 14.8258C77.4846 14.8258 76.9454 15.0733 76.6292 15.5623L73.7471 14.8258C73.8091 14.5783 73.9392 14.3248 74.1252 14.0532C74.3173 13.7875 74.5714 13.5038 74.9061 13.202C75.2346 12.9002 75.6871 12.6527 76.2512 12.4534C76.8152 12.2542 77.4598 12.1516 78.1664 12.1516C79.1457 12.1516 79.9949 12.3387 80.7201 12.7191C81.4452 13.0994 81.9845 13.5883 82.3378 14.192C82.6911 14.7957 82.8708 15.4778 82.8708 16.2263V21.1764C82.8708 22.1 82.97 22.933 83.1745 23.6876ZM78.1664 19.0636C77.7573 19.0636 77.4164 19.136 77.1499 19.2809C76.8834 19.4258 76.7036 19.5948 76.6045 19.7759C76.5115 19.957 76.4619 20.1622 76.4619 20.3735C76.4619 20.79 76.5859 21.1039 76.8276 21.3273C77.0693 21.5507 77.4288 21.6593 77.8999 21.6593C78.749 21.6593 79.406 21.442 79.8585 21.0134V19.2205C79.2945 19.1119 78.7242 19.0575 78.154 19.0575L78.1664 19.0636Z" fill="#2C5AB8"/>
<path d="M101.495 24.4482H98.4703V17.4518C98.4703 16.6248 98.3154 16.0392 97.9993 15.7011C97.6832 15.3631 97.2121 15.1941 96.5799 15.1941C95.9477 15.1941 95.3836 15.3933 94.8878 15.7917C94.3919 16.1901 94.144 16.7455 94.144 17.4457V24.4422H91.1193V17.4457C91.1193 16.8783 91.0449 16.4255 90.8961 16.0875C90.7474 15.7494 90.5366 15.514 90.2701 15.3872C90.0036 15.2544 89.6565 15.1941 89.2288 15.1941C88.5966 15.1941 88.0326 15.3933 87.5305 15.7917C87.0285 16.1901 86.7743 16.7455 86.7743 17.4457V24.4422H83.7744V12.6587H86.7743V13.6487C87.5925 12.8217 88.578 12.4051 89.7309 12.4051C91.4974 12.4051 92.7494 13.0873 93.487 14.4516C93.8837 13.8238 94.3919 13.3227 95.0117 12.9545C95.6316 12.5862 96.3258 12.3991 97.0819 12.3991C98.4022 12.3991 99.4745 12.8156 100.286 13.6547C101.098 14.4878 101.501 15.7555 101.501 17.4397V24.4362L101.495 24.4482Z" fill="#2C5AB8"/>
<path d="M120.039 12.6647L117.249 24.4483H112.737L111.485 19.2688L111.082 17.2888H111.057C110.915 18.0856 110.785 18.7497 110.655 19.2688L109.403 24.4483H104.89L102.101 12.6647H105.2L106.923 19.9147L107.301 21.7559H107.351C107.494 20.941 107.617 20.3313 107.729 19.9147L109.452 12.6647H112.663L114.411 19.9147L114.789 21.7559H114.838C114.981 20.941 115.099 20.3313 115.192 19.9147L116.94 12.6647H120.032H120.039Z" fill="#2C5AB8"/>
<path d="M123.638 18.1883V24.4482H120.638V12.6587H123.638V13.6487C124.413 12.8217 125.343 12.4052 126.427 12.4052C127.326 12.4052 128.119 12.5983 128.814 12.9786L127.276 15.5563C126.917 15.3088 126.483 15.188 125.975 15.188C125.281 15.188 124.717 15.4657 124.283 16.0151C123.849 16.5644 123.632 17.2888 123.632 18.1762L123.638 18.1883Z" fill="#2C5AB8"/>
<path d="M140 24.4482H136.312L132.978 19.7095L132.414 20.283V24.4482H129.414V7.5517H132.414V16.1358L135.792 12.6587H139.715L134.986 17.6087L139.994 24.4482H140Z" fill="#2C5AB8"/>
</g>
<defs>
<clipPath id="clip0_653_333">
<rect width="86.8966" height="16.8965" fill="white" transform="translate(53.1035 7.5517)"/>
</clipPath>
</defs>
</svg>
